<?xml version="1.0" encoding="UTF-8" standalone="no"?>
<!-- Created with Inkscape (http://www.inkscape.org/) -->

<svg
   xmlns:dc="http://purl.org/dc/elements/1.1/"
   xmlns:cc="http://creativecommons.org/ns#"
   xmlns:rdf="http://www.w3.org/1999/02/22-rdf-syntax-ns#"
   xmlns:svg="http://www.w3.org/2000/svg"
   xmlns="http://www.w3.org/2000/svg"
   xmlns:sodipodi="http://sodipodi.sourceforge.net/DTD/sodipodi-0.dtd"
   xmlns:inkscape="http://www.inkscape.org/namespaces/inkscape"
   width="141.1113mm"
   height="138.23378mm"
   viewBox="0 0 500.00066 489.80473"
   id="svg7319"
   version="1.1"
   inkscape:version="0.91 r13725"
   sodipodi:docname="bison.svg">
  <defs
     id="defs7321">
    <inkscape:path-effect
       effect="skeletal"
       id="path-effect8100"
       is_visible="true"
       pattern="m -451.42941,869.3404 c -29.71438,0 -59.42865,51.46671 -118.85742,154.4004 -118.85753,205.8673 -118.85764,205.8672 118.85742,205.8672 68.1268,0 116.69665,-0.01 148.57227,-4.8555 31.87562,4.8459 80.44547,4.8555 148.57226,4.8555 68.126794,0 116.694696,-0.01 148.5703152,-4.8555 31.8756218,4.8459 80.4454718,4.8555 148.5722648,4.8555 68.12679,0 116.6947,-0.01 148.57032,-4.8555 31.87559,4.8461 80.44457,4.8555 148.57226,4.8555 237.71507,0 237.71496,10e-5 118.85742,-205.8672 -118.85754,-205.8673 -118.85731,-205.8673 -237.71484,0 -10.95062,18.967 -20.87499,36.1579 -29.71484,51.791 -8.83974,-15.6329 -18.76246,-32.8243 -29.71289,-51.791 -118.85754,-205.8673 -118.85732,-205.8673 -237.714853,0 -10.95094,18.9676 -20.8747898,36.1595 -29.7148418,51.7929 -8.8400522,-15.6334 -18.7619452,-32.8253 -29.7128902,-51.7929 -118.857535,-205.8673 -118.857315,-205.8673 -237.714845,0 -10.95094,18.9676 -20.87479,36.1595 -29.71484,51.7929 -8.84005,-15.6334 -18.76194,-32.8253 -29.71289,-51.7929 -59.42877,-102.93369 -89.14499,-154.4004 -118.85938,-154.4004 z"
       copytype="repeated"
       prop_scale="1"
       scale_y_rel="false"
       spacing="0"
       normal_offset="5"
       tang_offset="0"
       prop_units="true"
       vertical_pattern="false"
       fuse_tolerance="0" />
    <inkscape:path-effect
       effect="skeletal"
       id="path-effect8090"
       is_visible="true"
       pattern="m -451.42941,869.3404 c -29.71438,0 -59.42865,51.46671 -118.85742,154.4004 -118.85753,205.8673 -118.85764,205.8672 118.85742,205.8672 68.1268,0 116.69665,-0.01 148.57227,-4.8555 31.87562,4.8459 80.44547,4.8555 148.57226,4.8555 68.126794,0 116.694696,-0.01 148.5703152,-4.8555 31.8756218,4.8459 80.4454718,4.8555 148.5722648,4.8555 68.12679,0 116.6947,-0.01 148.57032,-4.8555 31.87559,4.8461 80.44457,4.8555 148.57226,4.8555 237.71507,0 237.71496,10e-5 118.85742,-205.8672 -118.85754,-205.8673 -118.85731,-205.8673 -237.71484,0 -10.95062,18.967 -20.87499,36.1579 -29.71484,51.791 -8.83974,-15.6329 -18.76246,-32.8243 -29.71289,-51.791 -118.85754,-205.8673 -118.85732,-205.8673 -237.714853,0 -10.95094,18.9676 -20.8747898,36.1595 -29.7148418,51.7929 -8.8400522,-15.6334 -18.7619452,-32.8253 -29.7128902,-51.7929 -118.857535,-205.8673 -118.857315,-205.8673 -237.714845,0 -10.95094,18.9676 -20.87479,36.1595 -29.71484,51.7929 -8.84005,-15.6334 -18.76194,-32.8253 -29.71289,-51.7929 -59.42877,-102.93369 -89.14499,-154.4004 -118.85938,-154.4004 z"
       copytype="repeated_stretched"
       prop_scale="0.2"
       scale_y_rel="false"
       spacing="0"
       normal_offset="0"
       tang_offset="0"
       prop_units="false"
       vertical_pattern="false"
       fuse_tolerance="-0.4" />
  </defs>
  <sodipodi:namedview
     id="base"
     pagecolor="#ffffff"
     bordercolor="#666666"
     borderopacity="1.0"
     inkscape:pageopacity="0.0"
     inkscape:pageshadow="2"
     inkscape:zoom="1.4"
     inkscape:cx="288.56346"
     inkscape:cy="164.4206"
     inkscape:document-units="px"
     inkscape:current-layer="layer1"
     showgrid="false"
     showborder="true"
     inkscape:object-nodes="true"
     inkscape:object-paths="true"
     fit-margin-top="0"
     fit-margin-left="0"
     fit-margin-right="0"
     fit-margin-bottom="0"
     inkscape:window-width="1920"
     inkscape:window-height="1015"
     inkscape:window-x="0"
     inkscape:window-y="0"
     inkscape:window-maximized="1" />
  <metadata
     id="metadata7324">
    <rdf:RDF>
      <cc:Work
         rdf:about="">
        <dc:format>image/svg+xml</dc:format>
        <dc:type
           rdf:resource="http://purl.org/dc/dcmitype/StillImage" />
        <dc:title></dc:title>
      </cc:Work>
    </rdf:RDF>
  </metadata>
  <g
     inkscape:label="Layer 1"
     inkscape:groupmode="layer"
     id="layer1"
     transform="translate(993.4182,-529.73912)">
    <path
       style="color:#000000;font-style:normal;font-variant:normal;font-weight:normal;font-stretch:normal;font-size:medium;line-height:normal;font-family:sans-serif;text-indent:0;text-align:start;text-decoration:none;text-decoration-line:none;text-decoration-style:solid;text-decoration-color:#000000;letter-spacing:normal;word-spacing:normal;text-transform:none;direction:ltr;block-progression:tb;writing-mode:lr-tb;baseline-shift:baseline;text-anchor:start;white-space:normal;clip-rule:nonzero;display:inline;overflow:visible;visibility:visible;opacity:1;isolation:auto;mix-blend-mode:normal;color-interpolation:sRGB;color-interpolation-filters:linearRGB;solid-color:#000000;solid-opacity:1;fill:#333333;fill-opacity:1;fill-rule:nonzero;stroke:none;stroke-width:16.03943443;stroke-linecap:round;stroke-linejoin:round;stroke-miterlimit:4;stroke-dasharray:none;stroke-dashoffset:0;stroke-opacity:1;color-rendering:auto;image-rendering:auto;shape-rendering:auto;text-rendering:auto;enable-background:accumulate"
       d="m 250,0 c -38.51242,3e-5 -73.49371,9.6414213 -99.40039,25.800781 -25.90668,16.15937 -43.18951,39.504893 -43.18945,66.158203 a 8.0205192,8.0205192 0 0 0 0,0.02148 c 0.0322,12.240236 3.80284,24.086046 10.67578,34.941416 -9.71099,-0.50518 -23.691626,-2.02466 -37.035159,-4.59961 -9.36174,-1.80658 -18.512797,-4.10893 -25.804687,-6.73438 -7.29022,-2.62485 -12.652741,-5.94872 -14.119141,-7.62892 l -0.002,-0.002 C 26.95338,91.623111 20.879367,67.456843 25.554688,44.533203 a 8.0205192,8.0205192 0 0 0 -8.091797,-9.613281 8.0205192,8.0205192 0 0 0 -6.953125,4.451172 C -7.2885444,75.293374 -2.1648675,119.93053 23.476562,149.43164 a 8.0205192,8.0205192 0 0 0 0.0078,0.01 c 5.30313,6.0817 12.926074,9.86058 21.833984,13.2539 2.907763,1.10767 5.971483,2.13677 9.126953,3.10352 -11.638009,8.54528 -19.133292,20.55823 -18.859374,33.94531 a 8.0205192,8.0205192 0 0 0 0.986328,3.69141 c 10.02714,18.28593 34.624067,24.25854 58.091796,17.98828 a 8.0205192,8.0205192 0 0 0 0.0059,-0.002 c 8.104781,-2.17243 15.596121,-5.68 21.914061,-10.19727 -0.14101,1.75487 -0.28671,3.48627 -0.41406,5.29492 -0.1774,2.51953 -0.33616,5.09823 -0.48242,7.69141 -22.11751,31.77807 -34.063043,70.46427 -34.085941,110.25781 a 8.0205192,8.0205192 0 0 0 0,0.0117 c 0.0467,46.24712 16.176247,90.78345 45.316411,124.68945 a 8.0205192,8.0205192 0 0 0 12.93164,-1.05664 c 3.477,-5.70974 6.32271,-9.8182 8.29492,-11.99414 0.78756,-0.86891 1.14799,-1.12369 1.45313,-1.35937 0.85317,0.70939 2.32708,2.28836 4.11914,4.77148 3.64868,5.0557 8.56477,13.50001 15.11523,24.8457 2.41376,4.1808 4.59053,7.95447 6.51367,11.35547 a 8.0205192,8.0205192 0 0 0 13.96289,0 c 1.92287,-3.4005 4.09969,-7.17427 6.51368,-11.35547 6.55047,-11.34571 11.4666,-19.79001 15.11523,-24.8457 1.80149,-2.49621 3.28988,-4.09353 4.14062,-4.79687 0.85065,0.70312 2.34073,2.30016 4.14258,4.79687 3.64863,5.05569 8.56477,13.49999 15.11524,24.8457 2.41353,4.1804 4.59024,7.95397 6.51367,11.35547 a 8.0205192,8.0205192 0 0 0 13.96289,0 c 1.92285,-3.4005 4.09968,-7.17427 6.51367,-11.35547 6.55047,-11.34571 11.46661,-19.79001 15.11524,-24.8457 1.80148,-2.49621 3.28987,-4.09353 4.14062,-4.79687 0.85066,0.70312 2.34073,2.30016 4.14258,4.79687 3.64863,5.05569 8.56475,13.49999 15.11523,24.8457 2.41378,4.1809 4.59273,7.95292 6.51563,11.35352 a 8.0205192,8.0205192 0 0 0 13.96094,0 c 1.92298,-3.4007 4.10184,-7.17272 6.51562,-11.35352 5.81594,-10.07345 10.3227,-17.84355 13.83594,-23.00781 2.85061,-4.19022 4.80905,-5.90973 5.4668,-6.50976 0.27989,0.1948 0.31031,0.14631 0.95703,0.8164 2.23661,2.31745 5.85448,7.60855 10.42773,15.28125 a 8.0205192,8.0205192 0 0 0 12.84766,1.26172 C 401.174,428.01 418.34278,382.18693 418.40042,334.48258 a 8.0205192,8.0205192 0 0 0 0,-0.0234 c -0.0705,-39.68224 -11.99725,-78.24891 -34.03906,-109.94921 -0.15636,-2.87505 -0.3341,-5.72106 -0.5293,-8.50782 -0.11433,-1.63231 -0.24742,-3.18822 -0.37305,-4.77734 6.31795,4.51727 13.80929,8.02483 21.91407,10.19727 a 8.0205192,8.0205192 0 0 0 0.006,0.002 c 23.46773,6.27026 48.06465,0.29765 58.09179,-17.98828 a 8.0205192,8.0205192 0 0 0 0.98633,-3.69141 c 0.27403,-13.39224 -7.22733,-25.40918 -18.87305,-33.95508 3.14497,-0.96415 6.19899,-1.98954 9.09766,-3.09375 8.90791,-3.39332 16.53087,-7.1722 21.83398,-13.2539 a 8.0205192,8.0205192 0 0 0 0.008,-0.0117 c 25.64142,-29.50111 30.76513,-74.138269 12.96679,-110.060549 a 8.0205192,8.0205192 0 0 0 -7.10351,-4.455079 l 0,0.002 a 8.0205192,8.0205192 0 0 0 -7.94141,9.617187 c 4.67552,22.9246 -1.39936,47.091831 -15.57226,63.425781 -1.46639,1.6802 -6.82892,5.00406 -14.11914,7.62891 -7.29189,2.62545 -16.44295,4.9278 -25.80469,6.73438 -13.30504,2.56752 -27.24498,4.086 -36.95313,4.5957 6.84803,-10.86407 10.59062,-22.71636 10.59375,-34.957036 a 8.0205192,8.0205192 0 0 0 0,-0.002 C 392.5899,65.305604 375.30717,41.960151 349.40039,25.800781 323.49361,9.6414113 288.51252,-6e-5 250,0 Z m 0,16.041016 c 35.80906,-6e-5 68.11372,9.14863 90.91211,23.36914 22.79839,14.2205 35.63872,32.844038 35.63867,52.548828 -0.003,10.554546 -3.77897,21.128446 -11.29297,31.021486 a 8.0205192,8.0205192 0 0 0 -0.97461,1.0332 c -2.66359,3.42121 -5.92233,6.70312 -9.45508,9.90039 -0.53526,-0.8977 -1.05716,-1.75873 -1.57812,-2.61523 -0.12837,-0.21105 -0.26115,-0.43625 -0.38867,-0.64453 -0.004,-0.006 -0.008,-0.0114 -0.0117,-0.0176 -0.62575,-1.02187 -1.23968,-2.00326 -1.8457,-2.95117 -0.043,-0.0673 -0.088,-0.14212 -0.13086,-0.20899 -8.2e-4,-0.001 -10e-4,-0.003 -0.002,-0.004 -0.65049,-1.01355 -1.29088,-1.98033 -1.91992,-2.89258 -0.62956,-0.913 -1.24802,-1.77205 -1.85742,-2.56836 -1.87968,-2.45622 -3.73872,-4.56169 -6.19531,-6.29883 -2.45659,-1.73714 -5.93019,-3.0607 -9.46485,-2.71289 -5.30197,0.52171 -8.67919,3.36427 -11.62695,6.98828 -0.49129,0.604 -0.96893,1.22892 -1.44336,1.86914 -0.47474,0.64062 -0.94428,1.29639 -1.41601,1.95899 -3.4294,4.81692 -7.19675,11.30222 -11.82618,19.31836 -3.5857,-6.21138 -6.64697,-11.50039 -9.4414,-15.81836 -0.93148,-1.43933 -1.83303,-2.77031 -2.71485,-3.99219 -1.9345,-2.68051 -3.79217,-4.94556 -6.14257,-6.86133 -2.05661,-1.6763 -4.78425,-3.16269 -7.90235,-3.50781 -0.44544,-0.0493 -0.89881,-0.0742 -1.35937,-0.0742 -0.46057,0 -0.91399,0.0249 -1.35938,0.0742 -3.11773,0.34512 -5.84378,1.83151 -7.90039,3.50781 -1.1752,0.95789 -2.22799,2.00178 -3.22851,3.14258 -1.00053,1.1408 -1.94878,2.37849 -2.91602,3.71875 -1.76353,2.44361 -3.6068,5.32475 -5.60742,8.63086 -1.00031,1.65305 -2.04072,3.41197 -3.12891,5.27539 -1.08818,1.86341 -2.22479,3.83208 -3.41992,5.90234 -2.39061,-4.14116 -4.54795,-7.8732 -6.54883,-11.17969 -1,-1.65279 -1.96134,-3.19772 -2.89258,-4.63671 -0.9315,-1.43919 -1.83308,-2.77039 -2.71484,-3.99219 -0.96724,-1.34026 -1.91598,-2.57795 -2.91602,-3.71875 -1.00003,-1.14031 -2.05136,-2.18469 -3.22656,-3.14258 -0.2938,-0.23947 -0.6015,-0.47617 -0.92187,-0.70508 -1.60232,-1.14486 -3.52574,-2.12269 -5.66992,-2.58789 -0.42869,-0.0931 -0.86511,-0.16554 -1.31055,-0.21484 -0.44545,-0.0493 -0.89881,-0.0742 -1.35938,-0.0742 a 8.0205192,8.0205192 0 0 0 -0.82812,0.0449 c -2.93812,0.19973 -5.55235,1.41464 -7.61719,2.91406 -0.28187,0.20218 -0.55415,0.41088 -0.81445,0.62305 -1.1752,0.95789 -2.228,2.00178 -3.22852,3.14258 -0.50026,0.57015 -0.9876,1.16416 -1.4707,1.7832 -3.2e-4,4.1e-4 3.1e-4,0.002 0,0.002 -0.48279,0.61868 -0.96201,1.26195 -1.44531,1.93165 -3.2e-4,4.3e-4 3.1e-4,0.002 0,0.002 -0.44062,0.61056 -0.88803,1.24699 -1.33985,1.91211 -3.1e-4,4.5e-4 3.1e-4,0.002 0,0.002 -0.45184,0.66518 -0.90956,1.35689 -1.375,2.07617 -2.79468,4.31823 -5.85531,9.60827 -9.4414,15.82032 -4.62523,-8.00884 -8.38989,-14.48963 -11.81641,-19.30469 -3.7685,-5.29564 -7.40181,-10.11167 -14.46094,-10.82617 -3.52956,-0.35725 -7.00876,0.95558 -9.46875,2.6875 -2.45999,1.73192 -4.32077,3.83296 -6.19922,6.2832 -0.60202,0.78528 -1.21266,1.63032 -1.83398,2.5293 -0.40284,0.58299 -0.81704,1.22177 -1.22852,1.84765 -0.22945,0.34889 -0.45333,0.672 -0.68554,1.03321 -0.18795,0.29246 -0.38246,0.6139 -0.57227,0.91406 -0.47376,0.74888 -0.94795,1.49643 -1.43359,2.28906 -0.64281,1.04915 -1.29621,2.13191 -1.96094,3.24609 -3.52004,-3.18088 -6.76831,-6.4462 -9.42773,-9.8496 a 8.0205192,8.0205192 0 0 0 -0.98243,-1.03907 c -7.53087,-9.88278 -11.32884,-20.44926 -11.35937,-30.996091 0.004,-19.70112 12.84415,-38.320923 35.63867,-52.539063 22.7983,-14.2205 55.10314,-23.36911 90.91211,-23.36914 z M 18.212891,102.50195 c 2.99223,5.71571 6.57691,11.10536 10.8125,15.98438 a 8.0205192,8.0205192 0 0 0 0.01172,0.0137 c 5.08317,5.82878 12.301021,9.12652 20.775391,12.17773 8.47438,3.0512 18.274369,5.47929 28.199219,7.39454 15.05212,2.90467 29.855159,4.59968 40.964839,4.98828 -0.33423,3.27187 -0.53169,6.55612 -0.55859,9.8457 a 8.0205192,8.0205192 0 0 0 0,0.0742 c 0.003,2.51446 0.0932,5.02596 0.26953,7.5332 -9.06342,-0.43485 -21.703705,-1.78967 -34.457029,-4.10156 -0.993449,-0.1816 -1.9857,-0.37576 -2.978516,-0.56836 -1.035704,-0.20001 -2.073681,-0.39073 -3.105469,-0.60352 -9.81931,-2.02507 -19.405517,-4.59556 -27.117187,-7.5332 -7.70983,-2.93693 -13.470435,-6.53235 -15.453125,-8.80469 l -0.002,-0.002 C 26.735149,128.7272 21.002171,116.00528 18.212891,102.50195 Z m 463.574219,0 c -2.78947,13.50424 -8.52322,26.22685 -17.36328,36.40039 -1.98269,2.27234 -7.74134,5.86776 -15.45117,8.80469 -7.71167,2.93764 -17.29983,5.50813 -27.11914,7.5332 -1.84568,0.38064 -3.7011,0.74027 -5.55469,1.08008 -0.0137,0.003 -0.0273,0.005 -0.041,0.008 -12.96127,2.37403 -25.85213,3.75378 -35.03711,4.18946 0.19168,-2.48905 0.29991,-4.98355 0.32032,-7.48047 a 8.0205192,8.0205192 0 0 0 0,-0.0742 c -0.004,-3.3074 -0.16842,-6.61255 -0.48047,-9.9043 11.10568,-0.39106 25.89212,-2.08483 40.92773,-4.98632 9.92485,-1.91525 19.72485,-4.34334 28.19922,-7.39454 8.47438,-3.05121 15.69223,-6.34895 20.77539,-12.17773 a 8.0205192,8.0205192 0 0 0 0.0117,-0.0137 c 4.23559,-4.87902 7.82028,-10.26867 10.8125,-15.98438 z m -259.34766,27.41211 c 0.64896,0.65875 1.30679,1.28227 2.39844,2.79492 2.97815,4.12663 7.08871,11.17642 12.56641,20.66407 2.08985,3.61972 3.96844,6.87332 5.61328,9.78711 a 8.0205192,8.0205192 0 0 0 6.5293,4.0625 8.0205192,8.0205192 0 0 0 0.80273,0.006 8.0205192,8.0205192 0 0 0 6.63477,-4.06836 c 1.64516,-2.91433 3.5218,-6.16795 5.61132,-9.78711 2.73885,-4.74383 5.13609,-8.87952 7.22071,-12.34375 2.08462,-3.46423 3.85662,-6.257 5.3457,-8.32032 1.09166,-1.51265 1.74948,-2.13617 2.39844,-2.79492 0.64896,0.65875 1.30677,1.28227 2.39843,2.79492 2.97814,4.12663 7.09066,11.17642 12.56836,20.66407 2.08952,3.61915 3.96423,6.87279 5.60938,9.78711 a 8.0205192,8.0205192 0 0 0 0.42773,0.67578 8.0205192,8.0205192 0 0 0 6.10157,3.38867 8.0205192,8.0205192 0 0 0 0.80078,0.004 8.0205192,8.0205192 0 0 0 6.63867,-4.06836 c 1.64484,-2.91377 3.52148,-6.16737 5.61133,-9.78711 1.32789,-2.29998 2.57572,-4.45597 3.74609,-6.46094 3.51112,-6.01492 6.32899,-10.67223 8.55078,-13.79297 0.62112,-0.87241 1.14146,-1.49644 1.58789,-1.97852 0.44643,-0.48207 0.81894,-0.82219 1.14453,-1.12695 0.25116,0.24963 0.45585,0.42664 0.69727,0.67188 0.24142,0.24524 0.51955,0.5587 0.91406,1.07422 2.665,3.4824 6.45407,9.79761 11.43946,18.41601 a 8.0205192,8.0205192 0 0 0 0.43554,0.67188 8.0205192,8.0205192 0 0 0 1.0625,1.19922 8.0205192,8.0205192 0 0 0 0.61328,0.51367 8.0205192,8.0205192 0 0 0 0.002,0 8.0205192,8.0205192 0 0 0 1.36718,0.83203 8.0205192,8.0205192 0 0 0 6.97657,-0.0254 8.0205192,8.0205192 0 0 0 0.002,-0.002 8.0205192,8.0205192 0 0 0 1.24219,-0.75 c 2.70344,-1.99324 5.26959,-4.06948 7.69531,-6.21484 0.16174,2.17771 0.30327,4.35672 0.30664,6.54102 -0.0471,5.51142 -0.58359,11.01131 -1.60742,16.44921 -0.67717,3.59664 -0.17722,4.54133 0.0625,7.29102 0.0169,0.19378 0.0462,0.45354 0.0644,0.6543 -0.0157,2.53891 0.24198,5.02543 0.75781,7.44726 0.0796,0.73958 0.14749,1.38964 0.23243,2.17578 0.87983,8.14368 2.02019,18.71326 2.82226,30.16407 1.2947,18.4839 1.49072,39.43086 -1.2168,55.1582 -0.0399,0.22979 -0.08,0.45802 -0.12109,0.68555 -0.15921,0.88767 -0.33116,1.75196 -0.50976,2.60351 -0.0627,0.29752 -0.12435,0.59777 -0.18946,0.89063 -0.17795,0.80391 -0.36979,1.58241 -0.5664,2.34961 -0.0724,0.28176 -0.13993,0.57306 -0.21485,0.84961 -0.2706,1.00077 -0.55421,1.97517 -0.85937,2.90429 -4.96014,15.10214 -20.97177,37.71089 -35.72071,55.59766 -1.74251,2.11324 -3.45223,4.15133 -5.11328,6.10547 -0.52086,0.61277 -1.00099,1.15832 -1.51172,1.7539 5.1e-4,-0.10019 0.008,-0.19851 0.008,-0.29882 0,-14.44699 -5.22678,-27.66554 -13.97852,-38.34375 a 8.0205192,8.0205192 0 0 0 0.4668,-2.61133 c 0,0 0.81972,-42.58986 -0.006,-63.84961 -0.84703,-21.81599 -7.02735,-60.8457 -7.02735,-60.8457 a 8.0205192,8.0205192 0 0 0 -7.70117,-6.89258 8.0205192,8.0205192 0 0 0 -8.14648,9.36719 c 0,0 6.09324,39.56187 6.84765,58.99218 0.53722,13.83649 0.32764,38.01659 0.14844,51.99219 -11.9597,-7.89889 -26.67149,-12.53534 -42.42,-12.53534 -15.74851,0 -30.4603,4.63645 -42.41992,12.53516 -0.17918,-13.9756 -0.38873,-38.15571 0.14844,-51.99219 0.7544,-19.43031 6.84765,-58.99218 6.84765,-58.99218 a 8.0205192,8.0205192 0 0 0 -7.58594,-9.36329 8.0205192,8.0205192 0 0 0 -8.26171,6.88868 c 0,0 -6.18031,39.02971 -7.02735,60.8457 -0.82544,21.25976 -0.006,63.84961 -0.006,63.84961 a 8.0205192,8.0205192 0 0 0 0.4668,2.61133 c -8.75174,10.6782 -13.97852,23.89676 -13.97852,38.34375 0,0.0413 0.004,0.0817 0.004,0.12304 -2.32769,-2.70155 -4.71444,-5.50436 -7.17969,-8.49414 -14.5402,-17.63389 -30.32484,-39.92606 -35.20508,-54.78515 -0.30416,-0.92609 -0.58791,-1.89714 -0.85742,-2.89453 -0.0765,-0.28266 -0.1449,-0.58103 -0.21875,-0.86915 -0.19444,-0.76044 -0.38458,-1.52964 -0.56054,-2.32617 -0.0598,-0.26942 -0.11416,-0.54693 -0.17188,-0.82031 -0.18278,-0.86984 -0.35917,-1.7544 -0.52148,-2.66211 -0.0388,-0.2157 -0.0775,-0.43265 -0.11524,-0.65039 -2.68294,-15.60348 -2.47861,-36.36026 -1.1875,-54.69727 0.8001,-11.36325 1.93402,-21.85994 2.80664,-29.9707 0.11814,-1.09809 0.21701,-2.03553 0.32422,-3.04297 0.49219,-2.36168 0.73519,-4.78525 0.72266,-7.25781 0.23641,-2.72498 0.69789,-3.79976 0.043,-7.28125 -1.06276,-5.64928 -1.5986,-11.36523 -1.60743,-17.0918 0.0192,-2.24454 0.16476,-4.48376 0.34961,-6.7207 2.43011,2.14894 5.00421,4.22433 7.71289,6.2207 0.001,0.001 0.002,0.003 0.004,0.004 4.2e-4,3.1e-4 0.002,-3.1e-4 0.002,0 0.0101,0.007 0.0192,0.016 0.0293,0.0234 a 8.0205192,8.0205192 0 0 0 0.32617,0.21484 8.0205192,8.0205192 0 0 0 0.32813,0.2168 8.0205192,8.0205192 0 0 0 0.27539,0.14844 8.0205192,8.0205192 0 0 0 0.4375,0.22851 8.0205192,8.0205192 0 0 0 0.19726,0.082 8.0205192,8.0205192 0 0 0 0.55079,0.22266 8.0205192,8.0205192 0 0 0 0.20898,0.0625 8.0205192,8.0205192 0 0 0 0.54492,0.16015 8.0205192,8.0205192 0 0 0 0.53906,0.10157 8.0205192,8.0205192 0 0 0 0.24414,0.0469 8.0205192,8.0205192 0 0 0 0.51368,0.0449 8.0205192,8.0205192 0 0 0 0.28515,0.0254 8.0205192,8.0205192 0 0 0 0.34571,-0.004 8.0205192,8.0205192 0 0 0 0.47656,-0.008 8.0205192,8.0205192 0 0 0 0.006,0 8.0205192,8.0205192 0 0 0 0.20312,-0.0234 8.0205192,8.0205192 0 0 0 0.56836,-0.0664 8.0205192,8.0205192 0 0 0 0.50977,-0.10742 8.0205192,8.0205192 0 0 0 0.27148,-0.0586 8.0205192,8.0205192 0 0 0 0.50195,-0.16211 8.0205192,8.0205192 0 0 0 0.26368,-0.0859 8.0205192,8.0205192 0 0 0 0.51953,-0.22656 8.0205192,8.0205192 0 0 0 0.20312,-0.0879 8.0205192,8.0205192 0 0 0 0.008,-0.004 8.0205192,8.0205192 0 0 0 0.375,-0.20898 8.0205192,8.0205192 0 0 0 0.33593,-0.19141 8.0205192,8.0205192 0 0 0 0.22852,-0.16016 8.0205192,8.0205192 0 0 0 0.42969,-0.30273 8.0205192,8.0205192 0 0 0 0.01,-0.008 8.0205192,8.0205192 0 0 0 0.25586,-0.22266 8.0205192,8.0205192 0 0 0 0.33008,-0.28711 8.0205192,8.0205192 0 0 0 0.33594,-0.35352 8.0205192,8.0205192 0 0 0 0.21679,-0.23046 8.0205192,8.0205192 0 0 0 0.25,-0.32032 8.0205192,8.0205192 0 0 0 0.24414,-0.31836 8.0205192,8.0205192 0 0 0 0.01,-0.0117 8.0205192,8.0205192 0 0 0 0.34766,-0.54688 c 4.97243,-8.59508 8.75398,-14.88882 11.41015,-18.35351 0.78037,-1.01792 1.08975,-1.22585 1.58789,-1.72071 0.65362,0.61191 1.49812,1.36703 2.74219,3.11524 2.9619,4.16217 6.98199,11.05202 12.28906,20.24414 2.08987,3.61974 3.96674,6.8738 5.61133,9.78711 a 8.0205192,8.0205192 0 0 0 8.12891,3.99414 8.0205192,8.0205192 0 0 0 1.55468,-0.38477 8.0205192,8.0205192 0 0 0 4.28516,-3.60937 c 1.64458,-2.9133 3.52146,-6.16736 5.61133,-9.78711 1.36942,-2.37192 2.65327,-4.59275 3.85547,-6.65235 3.6066,-6.17879 6.47732,-10.91674 8.71094,-14.01172 1.09165,-1.51265 1.74947,-2.13617 2.39843,-2.79492 z m -101.66601,1.31055 a 8.0205192,8.0205192 0 0 0 -0.25391,0.71094 8.0205192,8.0205192 0 0 1 0.25391,-0.71094 z m -0.36524,1.14062 a 8.0205192,8.0205192 0 0 0 -0.0859,0.35352 8.0205192,8.0205192 0 0 1 0.0859,-0.35352 z m 259.26368,0.58399 a 8.0205192,8.0205192 0 0 1 0.0918,0.69726 8.0205192,8.0205192 0 0 0 -0.0918,-0.69726 z m -259.43165,0.30859 a 8.0205192,8.0205192 0 0 0 -0.0332,0.23242 8.0205192,8.0205192 0 0 1 0.0332,-0.23242 z M 421.8125,171.5918 c 15.44072,5.1077 25.27875,16.31047 26.38281,25.77343 -6.03766,8.15666 -21.65722,13.10785 -38.66992,8.56446 l -0.006,-0.002 c -16.57994,-4.44628 -27.50842,-16.05035 -29.12695,-25.97461 -0.0325,-0.31098 -0.0573,-0.56994 -0.0879,-0.86718 0.6365,-0.86196 1.39287,-1.68705 2.24609,-2.48633 10.94573,-0.50437 24.96921,-2.21958 39.26172,-5.00781 z m -343.599609,0.006 c 14.302044,2.7887 28.333659,4.50245 39.279299,5.0039 0.85645,0.80259 1.61588,1.63032 2.2539,2.4961 -0.0204,0.20456 -0.0351,0.3662 -0.0566,0.57812 -1.45743,9.98591 -12.43318,21.76721 -29.171872,26.25391 -17.01117,4.54298 -32.631062,-0.40715 -38.669922,-8.5625 1.102542,-9.45999 10.932931,-20.65897 26.365235,-25.76953 z m 88.832029,11.41601 a 20.854565,12.88883 15 0 0 -15.95312,8.16211 20.854565,12.88883 15 0 0 16.80664,17.8457 20.854565,12.88883 15 0 0 23.48047,-7.05078 20.854565,12.88883 15 0 0 -16.8086,-17.84765 20.854565,12.88883 15 0 0 -7.52539,-1.10938 z m 165.91016,0 a 12.88883,20.854565 75 0 0 -7.52539,1.10938 12.88883,20.854565 75 0 0 -16.8086,17.84765 12.88883,20.854565 75 0 0 23.48047,7.05078 12.88883,20.854565 75 0 0 16.80664,-17.8457 12.88883,20.854565 75 0 0 -15.95312,-8.16211 z M 115.4043,256.51758 c 0.45196,8.30971 1.42035,16.37912 3.15429,23.79883 0.016,0.0692 0.0347,0.13596 0.0508,0.20507 0.27809,1.17834 0.56484,2.34887 0.88281,3.49219 0.33524,1.20544 0.69041,2.39399 1.07226,3.55664 6.43518,19.59346 23.04553,41.76711 38.06836,59.98633 14.6222,17.73334 27.45134,30.85821 28.14844,31.57031 0.16929,0.23337 0.33685,0.46711 0.50977,0.69922 l 1.13671,1.5625 a 8.0205192,8.0205192 0 0 0 1.30665,1.39063 c 1.35892,1.65951 2.79045,3.2522 4.2871,4.77734 -0.0553,0.74956 -0.0903,1.50189 -0.0957,2.25391 a 8.0205192,8.0205192 0 0 0 -0.002,0.0586 c 3e-5,12.68878 7.08654,23.86246 17.35156,31.39258 10.26503,7.53012 23.86472,11.87889 38.72461,11.8789 14.8599,0 28.45958,-4.34878 38.72461,-11.8789 10.26503,-7.53012 17.35153,-18.70379 17.35156,-31.39258 a 8.0205192,8.0205192 0 0 0 0,-0.0156 c -10e-4,-0.76433 -0.0347,-1.52882 -0.0879,-2.29102 1.55492,-1.58427 3.04132,-3.23942 4.44727,-4.96875 a 8.0205192,8.0205192 0 0 0 1.09375,-1.20508 l 0.30664,-0.41992 0.0449,-0.0605 c 0.13049,-0.17599 0.25653,-0.35281 0.38476,-0.52929 0.7029,-0.71801 13.71529,-14.0314 28.54297,-32.01368 6.66382,-8.08154 13.63594,-16.932 19.91602,-25.99218 1.79431,-2.58863 3.53134,-5.19475 5.18945,-7.80469 0.82906,-1.30497 1.63756,-2.6106 2.42383,-3.91602 1.57254,-2.61084 3.05349,-5.21938 4.41992,-7.8125 2.73286,-5.18623 5.00795,-10.31039 6.63672,-15.26953 0.37821,-1.15153 0.7297,-2.32969 1.0625,-3.52343 0.001,-0.005 0.003,-0.009 0.004,-0.0137 5.4e-4,-0.002 10e-4,-0.004 0.002,-0.006 0.31099,-1.11654 0.59009,-2.25996 0.86328,-3.41015 0.0195,-0.0822 0.0432,-0.16175 0.0625,-0.24414 0.002,-0.008 0.004,-0.017 0.006,-0.0254 1.72929,-7.37486 2.71055,-15.39528 3.17774,-23.66211 11.52053,23.82469 17.7388,50.49645 17.78906,77.78906 -0.051,40.08489 -13.41449,78.55074 -37.08008,108.64062 -2.21786,-3.32208 -4.3714,-6.21879 -6.64844,-8.57812 -2.11159,-2.1879 -4.44017,-4.10967 -7.53515,-5.27734 -3.09499,-1.16768 -6.98752,-1.15699 -10.07422,0.0215 -6.17341,2.35691 -9.51305,7.03356 -13.61719,13.06641 -4.0013,5.88168 -8.46095,13.61555 -14.07031,23.33203 -6.33082,-10.9676 -11.16849,-19.38515 -15.60547,-25.53321 -2.26973,-3.14503 -4.4291,-5.75822 -7.06445,-7.90625 -2.63536,-2.14804 -6.12933,-3.92968 -10.08204,-3.92968 -3.95271,0 -7.44667,1.78164 -10.08203,3.92968 -2.63535,2.14803 -4.79667,4.76122 -7.0664,7.90625 -4.4372,6.14836 -9.27223,14.56675 -15.60352,25.53516 -6.33128,-10.96841 -11.16827,-19.3868 -15.60547,-25.53516 -2.26972,-3.14503 -4.42909,-5.75822 -7.06445,-7.90625 -2.63535,-2.14804 -6.12932,-3.92968 -10.08203,-3.92968 -3.95271,0 -7.44668,1.78164 -10.08203,3.92968 -2.63536,2.14803 -4.79668,4.76122 -7.06641,7.90625 -4.43685,6.14788 -9.27297,14.56608 -15.60352,25.53321 -6.33082,-10.96762 -11.16842,-19.38513 -15.60546,-25.53321 -2.26976,-3.14504 -4.43104,-5.75823 -7.06641,-7.90625 -2.63537,-2.14803 -6.12931,-3.92968 -10.08203,-3.92968 -5.68718,0 -9.96504,3.34171 -13.31445,7.03711 -1.2916,1.42501 -2.54259,3.14467 -3.80469,4.88672 C 110.17342,410.55294 97.682225,373.24407 97.640625,334.47656 l 0,-0.008 0,-0.006 c 0.01746,-27.34505 6.230715,-54.07126 17.763675,-77.94531 z M 250,297.03516 c 31.38121,0 55.77734,22.2445 55.77734,48.6875 0,11.94199 -4.98825,23.01829 -13.33593,31.58593 a 8.0205192,8.0205192 0 0 0 -0.77539,0.66602 c -9.09348,8.9707 -21.77528,14.74841 -35.46875,16.11719 -0.32474,0.0309 -0.65073,0.0559 -0.97657,0.082 -0.722,0.0609 -1.44303,0.12204 -2.16992,0.1582 -0.001,7e-5 -0.003,-6e-5 -0.004,0 -0.0338,0.002 -0.0678,0.002 -0.10157,0.004 -0.013,5.9e-4 -0.026,10e-4 -0.0391,0.002 -0.94491,0.0448 -1.89407,0.0699 -2.8457,0.0723 -0.0235,4e-5 -0.0468,0.002 -0.0703,0.002 -0.94969,-0.002 -1.89681,-0.0283 -2.83984,-0.0723 -0.006,-2.5e-4 -0.0117,2.6e-4 -0.0176,0 -0.0117,-5.2e-4 -0.0234,-10e-4 -0.0352,-0.002 -0.0534,-0.002 -0.1068,-0.005 -0.16016,-0.008 -0.71824,-0.0359 -1.43106,-0.0943 -2.14453,-0.1543 -0.0279,-0.002 -0.0561,-0.003 -0.084,-0.006 -0.26588,-0.0216 -0.53172,-0.0435 -0.79687,-0.0684 -0.0318,-0.003 -0.0639,-0.005 -0.0957,-0.008 -13.6872,-1.36526 -26.36402,-7.13595 -35.45899,-16.09766 a 8.0205192,8.0205192 0 0 0 -0.77734,-0.66406 c -8.36132,-8.57083 -13.35742,-19.65659 -13.35742,-31.60937 0,-26.443 24.39613,-48.6875 55.77734,-48.6875 z m -30.98047,35.8457 a 13.072986,8.0795489 15 0 0 -10.00195,5.11523 13.072986,8.0795489 15 0 0 10.53711,11.1875 13.072986,8.0795489 15 0 0 14.71875,-4.41992 13.072986,8.0795489 15 0 0 -10.53711,-11.1875 13.072986,8.0795489 15 0 0 -4.7168,-0.69531 z m 61.96094,0 a 8.0795489,13.072986 75 0 0 -4.7168,0.69531 8.0795489,13.072986 75 0 0 -10.53711,11.1875 8.0795489,13.072986 75 0 0 14.71875,4.41992 8.0795489,13.072986 75 0 0 10.53711,-11.1875 8.0795489,13.072986 75 0 0 -10.00195,-5.11523 z m -66.23242,69.51758 c 8.59098,4.17829 18.04123,6.81428 27.86133,7.70703 0.0821,0.008 0.16394,0.016 0.24609,0.0234 1.06879,0.0939 2.14196,0.16649 3.21875,0.21875 0.004,1.9e-4 0.008,-1.9e-4 0.0117,0 0.22423,0.011 0.44911,0.0202 0.67383,0.0293 1.06677,0.0429 2.13588,0.0727 3.20898,0.0742 0.005,10e-6 0.0104,-10e-6 0.0156,0 0.74313,-5.5e-4 1.48439,-0.0128 2.2246,-0.0332 0.0437,-10e-4 0.0872,-0.005 0.13086,-0.006 0.0469,-0.001 0.0937,-0.004 0.14063,-0.006 0.23464,-0.007 0.46881,-0.0181 0.70312,-0.0273 0.0117,-4.7e-4 0.0234,-0.001 0.0352,-0.002 0.23182,-0.009 0.46401,-0.016 0.69531,-0.0273 0.169,-0.008 0.339,-0.0123 0.50782,-0.0215 0.9193,-0.05 1.83462,-0.12073 2.74804,-0.20117 0.0607,-0.005 0.12103,-0.012 0.18164,-0.0176 0.48878,-0.0441 0.97795,-0.0859 1.46485,-0.13868 3.64197,-0.39468 7.23012,-1.02932 10.73828,-1.89453 0.70099,-0.17289 1.39932,-0.35571 2.09375,-0.54687 0.69505,-0.19135 1.38809,-0.39209 2.07617,-0.60157 0.68745,-0.20929 1.37265,-0.42902 2.05273,-0.65625 1.36138,-0.45486 2.70773,-0.94503 4.03711,-1.4707 0.6641,-0.26261 1.32497,-0.53443 1.98047,-0.81445 1.01902,-0.43532 2.02449,-0.89814 3.02149,-1.375 0.14193,-0.0679 0.2843,-0.1344 0.42578,-0.20313 -1.61266,2.08766 -3.52147,4.0994 -6.00586,5.92188 -7.12769,5.22866 -17.55586,8.77148 -29.23633,8.77148 -11.68047,0 -22.10864,-3.54282 -29.23633,-8.77148 -2.48861,-1.82558 -4.40131,-3.84018 -6.01562,-5.93164 z"
       transform="translate(-993.41786,529.73912)"
       id="path7867"
       inkscape:connector-curvature="0" />
  </g>
</svg>
