<?xml version="1.0" encoding="UTF-8" standalone="no"?>
<!-- Created with Inkscape (http://www.inkscape.org/) -->

<svg
   xmlns:dc="http://purl.org/dc/elements/1.1/"
   xmlns:cc="http://creativecommons.org/ns#"
   xmlns:rdf="http://www.w3.org/1999/02/22-rdf-syntax-ns#"
   xmlns:svg="http://www.w3.org/2000/svg"
   xmlns="http://www.w3.org/2000/svg"
   xmlns:sodipodi="http://sodipodi.sourceforge.net/DTD/sodipodi-0.dtd"
   xmlns:inkscape="http://www.inkscape.org/namespaces/inkscape"
   width="228.50787mm"
   height="167.0654mm"
   viewBox="0 0 809.67357 591.96401"
   id="svg13757"
   version="1.1"
   inkscape:version="0.91 r13725"
   sodipodi:docname="coast.svg">
  <defs
     id="defs13759" />
  <sodipodi:namedview
     id="base"
     pagecolor="#ffffff"
     bordercolor="#666666"
     borderopacity="1.0"
     inkscape:pageopacity="0.0"
     inkscape:pageshadow="2"
     inkscape:zoom="0.175"
     inkscape:cx="1051.5337"
     inkscape:cy="799.63576"
     inkscape:document-units="px"
     inkscape:current-layer="layer1"
     showgrid="false"
     showborder="true"
     inkscape:object-nodes="false"
     inkscape:snap-smooth-nodes="false"
     inkscape:object-paths="false"
     inkscape:window-width="1920"
     inkscape:window-height="1015"
     inkscape:window-x="0"
     inkscape:window-y="0"
     inkscape:window-maximized="1"
     fit-margin-top="0"
     fit-margin-left="0"
     fit-margin-right="0"
     fit-margin-bottom="0" />
  <metadata
     id="metadata13762">
    <rdf:RDF>
      <cc:Work
         rdf:about="">
        <dc:format>image/svg+xml</dc:format>
        <dc:type
           rdf:resource="http://purl.org/dc/dcmitype/StillImage" />
        <dc:title></dc:title>
      </cc:Work>
    </rdf:RDF>
  </metadata>
  <g
     inkscape:label="Layer 1"
     inkscape:groupmode="layer"
     id="layer1"
     transform="translate(3769.8856,945.87027)">
    <path
       style="opacity:1;fill:#333333;fill-opacity:1;stroke:none;stroke-width:64;stroke-linecap:round;stroke-linejoin:round;stroke-miterlimit:4;stroke-dasharray:none;stroke-opacity:1"
       d="m -3302.752,-945.86914 c -1.9785,0.006 -3.9613,0.0333 -5.9472,0.082 a 24.0024,24.0024 0 0 0 -0.025,0.002 c -150.9923,3.86494 -270.7634,129.92958 -266.8984,280.92188 1.034,43.25689 -10.3461,85.20196 -31.9317,121.32617 -6.3284,0.63411 -12.52,2.54717 -18.209,5.99609 -5.4095,3.0238 -10.3199,6.88021 -14.7793,11.16993 -11.386,-10.58746 -26.3172,-18.39094 -42.1914,-18 -26.8171,3.46719 -46.5749,25.24768 -59.8476,47.19336 -24.2731,34.51937 -33.3891,79.82933 -23.1758,120.8457 6.4754,15.79437 24.6085,24.14525 41.0586,22.12891 62.0374,-0.19874 124.0729,0.084 186.1133,-0.0137 183.9723,0.0317 367.9736,1.15272 551.9257,-1.16015 19.6225,-6.03268 29.2895,-28.81933 25.7168,-47.99219 3.8136,-50.96267 -21.7427,-102.07568 -62.1035,-132.625 -17.7054,-11.4355 -42.5854,-10.79479 -58.7969,3.11914 -2.9395,1.00234 -5.7361,6.87445 -8.4023,5.18164 -16.8396,-15.6209 -44.2516,-22.14278 -64.4277,-9.00391 -4.8509,2.61666 -9.2763,6.80816 -13.3809,9.86329 -10.7534,-10.25542 -25.9788,-16.92682 -40.9433,-16.91407 a 193.24903,270.90855 82.264426 0 1 -82.9786,-109.08007 193.24903,270.90855 82.264426 0 1 9.625,-84.55469 c 16.8007,-8.09293 36.1438,-13.06909 57.5547,-14.77539 25.9572,-2.06863 54.7171,0.95722 84.4336,9.41797 a 31.428572,58.57143 16.782644 0 0 16.9141,47.32421 31.428572,58.57143 16.782644 0 0 24.1191,-8.07421 31.428572,58.57143 6.7233495 0 0 24.5059,38.73828 31.428572,58.57143 6.7233495 0 0 38.0703,-54.49024 31.428572,58.57143 6.7233495 0 0 0.6777,-14.64648 24.0024,24.0024 0 0 0 -0.7246,-6.96094 c -31.0066,-119.19578 -137.8289,-202.70514 -260.0254,-204.97266 -1.9709,-0.0366 -3.9452,-0.0526 -5.9238,-0.0469 l 0,0 z m -0.7265,48.00586 c 84.1585,-0.58142 159.8699,45.31102 199.2305,116.54297 -42.4305,-15.4081 -84.8927,-21.83275 -124.3594,-18.6875 -56.9129,4.53559 -108.3274,29.37794 -139.752,74.48437 a 24.0024,24.0024 0 0 0 -0.02,0.0274 c -36.3431,52.32152 -39.3931,119.42207 -15.9277,185.31445 -1.7508,0.75231 -3.4709,1.61707 -5.1446,2.62695 -5.4185,2.77424 -10.2989,7.26509 -14.8047,10.76367 -16.4915,-15.71804 -43.4506,-23.12745 -63.9433,-10.76562 -5.4184,2.77563 -10.303,7.2633 -14.8067,10.76562 -16.4923,-15.71992 -43.4532,-23.12693 -63.9472,-10.76562 -5.4197,2.77647 -10.2997,7.27135 -14.8086,10.76953 -0.03,-0.0285 -0.062,-0.0555 -0.092,-0.084 23.2406,-41.96504 35.4053,-89.88379 34.2187,-139.18555 a 24.0024,24.0024 0 0 0 0,-0.0352 c -3.201,-125.05574 95.0788,-228.50165 220.1328,-231.70898 l 0.01,0 c 1.34,-0.0327 2.6778,-0.0533 4.0137,-0.0625 z m -298.0899,354.10547 c 0.1,0.002 0.1992,0.003 0.2989,0.006 -0.1,-0.003 -0.1992,-0.004 -0.2989,-0.006 z m -2.625,0.01 c -0.177,0.005 -0.3543,0.008 -0.5312,0.0156 0.177,-0.007 0.3541,-0.0104 0.5312,-0.0156 z m -1.498,0.0645 c -0.2953,0.0179 -0.5899,0.0411 -0.8848,0.0644 0.2948,-0.0234 0.5896,-0.0466 0.8848,-0.0644 z m 7.3535,0.0996 c 0.095,0.008 0.1901,0.0187 0.2852,0.0273 -0.095,-0.009 -0.1901,-0.0192 -0.2852,-0.0273 z m 237.1309,0.10156 c 0.085,0.009 0.1692,0.0164 0.2539,0.0254 -0.085,-0.009 -0.1692,-0.0168 -0.2539,-0.0254 z m 146.2949,0.10156 c -0.1341,0.0166 -0.2684,0.031 -0.4024,0.0488 0.134,-0.0177 0.2683,-0.0322 0.4024,-0.0488 z m -380.5274,0.12891 c 0.1531,0.0215 0.3061,0.0416 0.459,0.0644 -0.1529,-0.0228 -0.3059,-0.0429 -0.459,-0.0644 z m 236.2168,0.008 c 0.092,0.0128 0.1836,0.0258 0.2754,0.0391 -0.092,-0.0133 -0.1835,-0.0263 -0.2754,-0.0391 z m 142.7305,0.082 c -0.1768,0.0282 -0.3528,0.0616 -0.5293,0.0918 0.1765,-0.0302 0.3526,-0.0637 0.5293,-0.0918 z m -140.7637,0.22852 c 0.1036,0.0182 0.2071,0.0359 0.3106,0.0547 -0.1034,-0.0188 -0.2071,-0.0365 -0.3106,-0.0547 z m 138.2344,0.25195 c -0.2535,0.0553 -0.5071,0.11011 -0.7597,0.16992 0.2527,-0.0597 0.5061,-0.11471 0.7597,-0.16992 z m -136.2246,0.13672 c 0.089,0.0189 0.1771,0.0393 0.2656,0.0586 -0.088,-0.0194 -0.177,-0.0397 -0.2656,-0.0586 z m 134.5176,0.26953 c -0.3272,0.0851 -0.6529,0.17474 -0.9785,0.26758 0.3254,-0.0926 0.6515,-0.1827 0.9785,-0.26758 z m -132.5723,0.17969 c 0.1137,0.0284 0.2263,0.0608 0.3399,0.0898 -0.1135,-0.0291 -0.2262,-0.0615 -0.3399,-0.0898 z m -235.9804,0.0644 c 0.1668,0.0426 0.3334,0.0848 0.5,0.12891 -0.1665,-0.0441 -0.3333,-0.0863 -0.5,-0.12891 z m 366.4921,0.3457 c -0.4615,0.1447 -0.923,0.2944 -1.3808,0.45508 0.4582,-0.16057 0.9188,-0.31054 1.3808,-0.45508 z m -2.0527,0.70117 c -0.399,0.14761 -0.7956,0.30085 -1.1914,0.46094 0.3954,-0.15971 0.7928,-0.3137 1.1914,-0.46094 z m -1.8281,0.71876 c -0.5658,0.23958 -1.1292,0.49198 -1.6875,0.75781 0.559,-0.2659 1.1211,-0.51827 1.6875,-0.75781 z m -356.5996,0.11328 c 0.19,0.0704 0.379,0.1426 0.5683,0.21484 -0.1892,-0.0722 -0.3784,-0.1445 -0.5683,-0.21484 z m 354.4883,0.85546 c -0.4697,0.23009 -0.9366,0.46767 -1.4004,0.7168 0.4638,-0.24901 0.9307,-0.48688 1.4004,-0.7168 z m -1.8887,0.98243 c -0.5798,0.32133 -1.1569,0.65196 -1.7266,1.0039 0.5697,-0.35194 1.1468,-0.68269 1.7266,-1.0039 z m -111.791,0.0586 c 0.2259,0.10432 0.453,0.20554 0.6777,0.3125 -0.2246,-0.10702 -0.4518,-0.20812 -0.6777,-0.3125 z m -234.8887,0.64648 c 0.1245,0.0612 0.247,0.12549 0.3711,0.1875 -0.124,-0.062 -0.2467,-0.12631 -0.3711,-0.1875 z m 236.7266,0.23829 c 0.2303,0.11549 0.4625,0.22745 0.6914,0.3457 -0.2288,-0.11825 -0.4612,-0.23021 -0.6914,-0.3457 z m 1.8046,0.9414 c 0.2655,0.14383 0.5317,0.2861 0.795,0.4336 -0.2632,-0.14756 -0.5296,-0.28971 -0.795,-0.4336 z m -235.8613,0.21485 c 0.1269,0.07 0.2545,0.13814 0.3809,0.20898 -0.1264,-0.0708 -0.2541,-0.139 -0.3809,-0.20898 z m 237.5527,0.73437 c 0.3133,0.18226 0.6257,0.36533 0.9356,0.55274 -0.3099,-0.18752 -0.6222,-0.37037 -0.9356,-0.55274 z m -234.6406,0.96875 c 0.063,0.0394 0.1244,0.0815 0.1875,0.1211 -0.063,-0.0395 -0.1243,-0.0818 -0.1875,-0.1211 z m 236.461,0.13086 c 0.3157,0.19806 0.6295,0.39823 0.9414,0.60156 -0.3117,-0.20329 -0.6259,-0.40354 -0.9414,-0.60156 z m 1.6738,1.08594 c 0.344,0.23115 0.6846,0.46562 1.0234,0.70312 -0.3387,-0.23746 -0.6796,-0.47199 -1.0234,-0.70312 z m -235.6602,0.41015 c 0.1161,0.08 0.2323,0.15955 0.3477,0.24024 -0.1155,-0.0807 -0.2316,-0.16025 -0.3477,-0.24024 z m 237.4278,0.82227 c 0.3232,0.23362 0.6428,0.47162 0.9609,0.71094 -0.3181,-0.2393 -0.6378,-0.47733 -0.9609,-0.71094 z m 1.6347,1.2207 c 0.3314,0.25639 0.6571,0.51876 0.9825,0.78125 -0.3256,-0.26269 -0.6509,-0.52466 -0.9825,-0.78125 z m 1.6641,1.33203 c 0.3037,0.25223 0.6004,0.5101 0.8984,0.76758 -0.2978,-0.25734 -0.5949,-0.51547 -0.8984,-0.76758 z m -235.8262,0.3711 c 0.162,0.13713 0.3221,0.27542 0.4824,0.41406 -0.1602,-0.13854 -0.3205,-0.27703 -0.4824,-0.41406 z m 237.3867,0.96875 c 0.5087,0.45251 1.0095,0.91136 1.5,1.3789 -0.4904,-0.46741 -0.9915,-0.92648 -1.5,-1.3789 z m -353.1367,25.80469 c 11.15,3.70432 17.75,14.25993 24.2305,23.31835 5.1258,5.33457 6.801,16.18255 15.8867,16.27735 7.8759,-1.78898 10.6357,-11.45453 14.9727,-17.16992 7.0065,-8.07598 12.6938,-19.02995 23.6406,-22.17188 11.197,3.155 17.8081,14.19608 24.2754,23.09571 5.1524,5.406 6.8161,16.17179 15.8652,16.24609 7.8728,-1.79366 10.6326,-11.45458 14.9688,-17.16992 7.0065,-8.07598 12.6938,-19.02995 23.6406,-22.17188 11.197,3.155 17.8081,14.19608 24.2754,23.09571 5.1524,5.406 6.8161,16.17179 15.8652,16.24609 7.8728,-1.79366 10.6326,-11.45458 14.9688,-17.16992 7.0065,-8.07598 12.6938,-19.02995 23.6406,-22.17188 11.197,3.155 17.8081,14.19608 24.2754,23.09571 5.1524,5.406 6.8161,16.17179 15.8652,16.24609 7.8728,-1.79366 10.6326,-11.45458 14.9688,-17.16992 7.0065,-8.07598 12.6938,-19.02995 23.6406,-22.17188 11.197,3.155 17.8081,14.19608 24.2754,23.09571 5.1524,5.406 6.8161,16.17179 15.8652,16.24609 7.8728,-1.79366 10.6326,-11.45458 14.9688,-17.16992 7.0065,-8.07598 12.6938,-19.02995 23.6406,-22.17188 11.197,3.155 17.8081,14.19608 24.2754,23.09571 5.1524,5.406 6.8161,16.17179 15.8652,16.24609 7.8728,-1.79366 10.6326,-11.45458 14.9688,-17.16992 7.0065,-8.07598 12.6938,-19.02995 23.6406,-22.17188 11.197,3.155 17.8081,14.19608 24.2754,23.09571 5.1524,5.406 6.8161,16.17179 15.8652,16.24609 7.8728,-1.79366 10.6326,-11.45458 14.9688,-17.16992 7.0065,-8.07598 12.6938,-19.02995 23.6406,-22.17188 12.802,3.85868 19.5406,17.01185 27.0605,27.05078 3.099,5.79328 7.9225,14.86941 15.9922,11.68555 8.2663,-8.15801 12.9218,-19.34783 20.8711,-27.86328 4.963,-4.31042 9.6548,-11.85005 17.0645,-10.77734 17.2172,11.7629 28.4153,30.55335 37.0176,49.21289 9.6577,17.25781 8.1575,37.64713 7.746,56.71679 l -720.7656,0 c -6.0279,0.41955 -1.6575,-9.58295 -3.0215,-13.84765 -2.2423,-21.01792 5.2952,-41.75045 16.4239,-59.36524 8.6685,-11.76753 15.5144,-26.90566 29.8105,-32.85742 l 0.5703,-0.20898 z"
       id="path15358"
       inkscape:connector-curvature="0" />
  </g>
</svg>
