<?xml version="1.0" encoding="UTF-8" standalone="no"?>
<!-- Created with Inkscape (http://www.inkscape.org/) -->

<svg
   xmlns:dc="http://purl.org/dc/elements/1.1/"
   xmlns:cc="http://creativecommons.org/ns#"
   xmlns:rdf="http://www.w3.org/1999/02/22-rdf-syntax-ns#"
   xmlns:svg="http://www.w3.org/2000/svg"
   xmlns="http://www.w3.org/2000/svg"
   xmlns:sodipodi="http://sodipodi.sourceforge.net/DTD/sodipodi-0.dtd"
   xmlns:inkscape="http://www.inkscape.org/namespaces/inkscape"
   width="224.69896mm"
   height="142.05858mm"
   viewBox="0 0 796.17742 503.35717"
   id="svg8835"
   version="1.1"
   inkscape:version="0.91 r13725"
   sodipodi:docname="fish.svg">
  <defs
     id="defs8837" />
  <sodipodi:namedview
     id="base"
     pagecolor="#ffffff"
     bordercolor="#666666"
     borderopacity="1.0"
     inkscape:pageopacity="0.0"
     inkscape:pageshadow="2"
     inkscape:zoom="0.35"
     inkscape:cx="124.5173"
     inkscape:cy="205.96426"
     inkscape:document-units="px"
     inkscape:current-layer="layer1"
     showgrid="false"
     showborder="true"
     fit-margin-top="0"
     fit-margin-left="0"
     fit-margin-right="0"
     fit-margin-bottom="0"
     inkscape:window-width="1920"
     inkscape:window-height="1015"
     inkscape:window-x="0"
     inkscape:window-y="0"
     inkscape:window-maximized="1" />
  <metadata
     id="metadata8840">
    <rdf:RDF>
      <cc:Work
         rdf:about="">
        <dc:format>image/svg+xml</dc:format>
        <dc:type
           rdf:resource="http://purl.org/dc/dcmitype/StillImage" />
        <dc:title></dc:title>
      </cc:Work>
    </rdf:RDF>
  </metadata>
  <g
     inkscape:label="Layer 1"
     inkscape:groupmode="layer"
     id="layer1"
     transform="translate(198.08873,-234.96932)">
    <path
       style="color:#000000;font-style:normal;font-variant:normal;font-weight:normal;font-stretch:normal;font-size:medium;line-height:normal;font-family:sans-serif;text-indent:0;text-align:start;text-decoration:none;text-decoration-line:none;text-decoration-style:solid;text-decoration-color:#000000;letter-spacing:normal;word-spacing:normal;text-transform:none;direction:ltr;block-progression:tb;writing-mode:lr-tb;baseline-shift:baseline;text-anchor:start;white-space:normal;clip-rule:nonzero;display:inline;overflow:visible;visibility:visible;opacity:1;isolation:auto;mix-blend-mode:normal;color-interpolation:sRGB;color-interpolation-filters:linearRGB;solid-color:#000000;solid-opacity:1;fill:#333333;fill-opacity:1;fill-rule:nonzero;stroke:none;stroke-width:17.15752411;stroke-linecap:round;stroke-linejoin:round;stroke-miterlimit:4;stroke-dasharray:none;stroke-dashoffset:0;stroke-opacity:1;color-rendering:auto;image-rendering:auto;shape-rendering:auto;text-rendering:auto;enable-background:accumulate"
       d="m 150.12583,235.00933 c -74.976858,0.0552 -134.889027,27.78631 -153.9248119,78.89249 a 14.127764,14.127764 0 0 0 -0.022595,0.0552 c -8.7320521,23.75293 -7.3672891,50.33545 2.6680184,76.64408 -5.7415593,4.27163 -11.1257725,8.71398 -16.1101125,13.3288 -22.691688,-53.15501 -67.75576,-88.60742 -118.873789,-88.68424 a 12.119873,12.119873 0 0 0 -0.0663,0 c -19.31058,0.0753 -38.36296,5.2796 -55.72457,15.08088 a 12.119873,12.119873 0 0 0 -0.55183,20.77572 c 44.86468,28.5593 71.91843,77.55715 71.98094,130.18872 -0.0126,52.65238 -27.0419,101.69292 -71.90921,130.28787 a 12.119873,12.119873 0 0 0 0.58216,20.78676 c 17.34568,9.73927 36.36866,14.89485 55.64184,14.94029 a 12.119873,12.119873 0 0 0 0.0304,0 c 51.105703,-0.0251 96.199851,-35.38613 118.942804,-88.49645 55.139415,50.88325 157.972606,81.16376 272.737886,83.91628 -6.64401,11.96759 -10.97938,24.0459 -12.77166,35.64973 -2.71742,17.59365 0.64761,34.87398 12.34676,46.62542 a 10.507887,10.507887 0 0 0 0.0176,0.0251 c 13.82565,13.82713 34.83231,15.96232 55.52872,10.57301 20.69641,-5.38981 42.3134,-18.19642 61.22341,-37.10683 a 10.507887,10.507887 0 0 0 0.005,-0.0251 c 20.98655,-21.02175 35.40584,-46.13437 38.9192,-70.20136 19.78607,-4.42703 38.59066,-9.78371 56.13573,-15.99973 0.78147,-0.27691 1.5354,-0.57239 2.31205,-0.85282 2.57169,-0.92035 5.11642,-1.85552 7.62881,-2.81127 0.97258,-0.3723 1.93528,-0.75089 2.89972,-1.12847 17.38148,-6.77034 33.28408,-14.39702 47.46948,-22.83107 0.15766,-0.0929 0.31756,-0.18578 0.47464,-0.27867 0.88925,-0.53122 1.76747,-1.06847 2.64319,-1.60572 0.8186,-0.5016 1.63173,-1.00521 2.43891,-1.51208 0.59669,-0.37607 1.19239,-0.7524 1.78233,-1.13123 1.40315,-0.89852 2.79106,-1.80406 4.15793,-2.72039 0.005,0 0.0126,-0.0251 0.0201,-0.0251 10e-4,-10e-4 0.005,0 0.005,0 20.79628,-13.94437 37.37001,-29.95966 48.50411,-48.03784 a 12.119873,12.119873 0 0 0 -4.1386,-16.77773 c -0.0176,-0.0251 -0.0301,-0.0251 -0.0469,-0.0276 -2.05013,-1.21559 -3.8644,-2.33252 -5.70011,-3.45697 -0.72298,-0.44311 -1.55712,-0.93191 -2.24593,-1.3602 -0.90564,-0.56361 -1.62919,-1.04864 -2.47481,-1.58664 -1.44696,-0.9201 -2.95763,-1.86857 -4.22418,-2.7121 -0.99085,-0.66002 -1.92586,-1.29517 -2.80311,-1.90648 -0.008,0 -0.0176,-0.0251 -0.0251,-0.0251 -0.34411,-0.24101 -0.63666,-0.45766 -0.96285,-0.68989 -0.51194,-0.36427 -1.04209,-0.73884 -1.50924,-1.08429 -0.76031,-0.56235 -1.4618,-1.09709 -2.10243,-1.60848 -0.001,0 -0.005,0 -0.005,0 -0.14687,-0.11799 -0.25951,-0.21841 -0.40008,-0.3339 -0.4738,-0.38636 -0.9435,-0.77072 -1.3437,-1.12596 -0.005,0 -0.005,0 -0.0126,-0.0251 -0.40007,-0.35499 -0.72709,-0.66529 -1.00159,-0.94094 -0.27219,-0.2734 -0.49015,-0.5119 -0.67312,-0.72554 -10e-4,0 -0.005,0 -0.005,0 -0.36656,-0.42854 -0.58794,-0.75566 -0.80294,-1.05416 0.32348,-0.38788 0.83389,-1.02379 1.78515,-1.95318 0.95126,-0.92964 2.34356,-2.15276 4.42821,-3.7138 0.75986,-0.56888 1.57889,-1.16261 2.45556,-1.77668 0.87712,-0.6143 1.81439,-1.25197 2.80592,-1.91223 1.98333,-1.32003 4.19468,-2.73269 6.62455,-4.2405 0.001,-10e-4 0.005,0 0.005,0 2.4289,-1.50731 5.07701,-3.11128 7.93505,-4.8119 0.005,0 0.005,0 0.0125,0 2.85749,-1.70036 5.92643,-3.5004 9.19597,-5.39935 0.005,0 0.0126,0 0.0176,-0.0251 a 12.119873,12.119873 0 0 0 5.4878,-14.07392 c -0.2277,-0.73332 -0.48594,-1.45735 -0.73119,-2.18514 -0.0575,-0.17072 -0.11272,-0.34244 -0.17096,-0.51315 -0.25723,-0.74939 -0.52154,-1.49677 -0.79739,-2.24038 -0.12804,-0.34595 -0.26265,-0.68964 -0.39458,-1.03458 -0.38719,-1.00923 -0.78727,-2.01418 -1.20836,-3.01286 -0.26345,-0.62738 -0.53453,-1.25275 -0.81114,-1.87611 -0.19331,-0.43281 -0.38567,-0.86612 -0.58497,-1.29667 -0.48285,-1.04889 -0.98335,-2.09101 -1.50375,-3.1291 -0.66945,-1.32781 -1.36715,-2.64533 -2.09678,-3.95355 -0.57736,-1.04161 -1.19199,-2.07117 -1.80716,-3.10123 -0.13406,-0.22344 -0.26418,-0.44788 -0.40008,-0.67031 -26.05803,-42.95506 -84.944,-75.90123 -162.50279,-95.41642 -0.0125,0 -0.0226,-0.0251 -0.0359,-0.0251 -0.008,0 -0.0201,0 -0.0276,0 -1.05482,-0.26561 -2.09465,-0.54277 -3.15642,-0.80311 a 12.119873,12.119873 0 0 0 -0.85533,-0.1657 c -5.83038,-1.42145 -11.73166,-2.78239 -17.74621,-4.03614 a 14.127764,14.127764 0 0 0 -0.85807,-0.85558 C 369.14412,301.8451 327.14408,276.95516 281.0251,259.7647 a 14.127764,14.127764 0 0 0 -0.005,0 C 237.55626,243.57694 192.32,234.93778 150.12509,234.96941 Z m 0.0226,28.25302 c 38.29616,-0.0276 80.49563,7.92843 121.01206,23.01835 24.64226,9.1857 47.92522,20.82718 68.94872,34.11882 -22.01786,-2.21678 -44.44878,-3.4419 -67.04221,-3.45998 a 14.127764,14.127764 0 0 0 -0.0276,0 C 176.50493,317.05251 85.665394,336.98269 22.674638,372.9485 17.167459,354.84396 17.351781,338.27711 22.68719,323.74327 35.979106,288.09429 82.091082,263.3118 150.14993,263.26235 Z m -286.28488,76.22131 c 44.388086,0.0879 85.649968,34.73089 102.587142,90.16318 a 12.119873,12.119873 0 0 0 20.861201,4.26259 c 43.357496,-51.51439 157.660647,-90.01455 285.228127,-90.07179 44.07625,0.0251 86.21977,4.43456 124.3257,12.30526 -25.66081,35.61734 -39.70807,79.60422 -39.77176,125.11749 a 12.119873,12.119873 0 0 0 0,0.0251 c 0.008,45.52002 14.00641,89.53602 39.63379,125.19479 -38.21379,7.86292 -80.34762,12.22995 -124.17671,12.24175 -127.42807,-0.0276 -241.683497,-38.40929 -285.203272,-89.85388 a 12.119873,12.119873 0 0 0 -20.836397,4.27112 c -17.004858,55.37054 -58.282153,89.92067 -102.653321,89.93648 -8.56726,-0.0251 -17.064,-1.47065 -25.39432,-4.04192 41.02028,-33.80551 65.266254,-84.15904 65.273685,-137.74834 a 12.119873,12.119873 0 0 0 0,-0.0251 c -0.06377,-53.5725 -24.348645,-103.89039 -65.384055,-137.65472 8.36655,-2.61018 16.90146,-4.08837 25.51019,-4.12477 z m 558.97309,22.88354 0,0.0251 c 67.68782,17.79022 116.72165,46.93949 139.56947,78.03415 0.25188,0.34921 0.51606,0.69642 0.76156,1.04588 0.005,0 0.005,0.0251 0.0126,0.0251 0.008,0.0251 0.0176,0.0251 0.0251,0.0352 3.01665,4.30176 5.55375,8.65021 7.59291,13.02276 -3.66256,2.17285 -7.08722,4.24804 -10.3244,6.26875 -0.62029,0.38712 -1.28804,0.7883 -1.88996,1.16964 -0.0151,0.0251 -0.0279,0.0251 -0.0414,0.0276 -1.8696,1.18621 -3.64968,2.34908 -5.32492,3.48509 -0.005,0 -0.0126,0.0251 -0.0201,0.0251 -1.68061,1.13977 -3.25907,2.25469 -4.71805,3.34676 -2.94325,2.20398 -5.72032,4.38862 -8.1337,6.77913 -0.4006,0.39666 -0.79289,0.79909 -1.17261,1.20831 -10e-4,0.002 -10e-4,0 -0.005,0 -0.37944,0.40921 -0.747,0.82369 -1.10369,1.24722 -0.18277,0.2159 -0.35316,0.4436 -0.52975,0.66503 -0.1687,0.21088 -0.34481,0.4185 -0.50755,0.63416 -10e-4,0 -0.005,0 -0.005,0.0251 -0.99705,1.32254 -1.87936,2.72415 -2.62114,4.23247 -0.001,0 -0.001,0 -0.005,0.0251 -0.24779,0.50462 -0.47959,1.02103 -0.69516,1.55075 -0.64485,1.58285 -1.14409,3.28045 -1.46787,5.12317 -0.10896,0.62084 -0.18478,1.24747 -0.23172,1.8766 -0.0931,1.24948 -0.0675,2.509 0.0607,3.75497 0.1923,1.86807 0.61651,3.7035 1.21955,5.41868 0.39963,1.13701 0.87625,2.2213 1.41814,3.22802 0.005,0 0.005,0.0251 0.0126,0.0251 0.26941,0.49959 0.54981,0.98588 0.84153,1.45961 0.005,0 0.005,0.0251 0.0126,0.0251 0.29581,0.47925 0.60137,0.94621 0.9188,1.40136 0.31303,0.44913 0.63538,0.88772 0.96847,1.31626 0.005,0 0.01,0.0251 0.0151,0.0251 0.33395,0.42929 0.67904,0.84905 1.03192,1.26077 0.42309,0.49432 0.88402,0.95827 1.33255,1.432 0.30907,0.32611 0.59853,0.66654 0.91877,0.98512 0.005,0 0.005,0 0.008,0.0251 0.77836,0.77349 1.58978,1.52689 2.42789,2.271 0.005,0 0.0125,0.0251 0.0176,0.0251 0.47098,0.41775 0.96384,0.83499 1.46506,1.25249 0.067,0.0577 0.12829,0.11297 0.19582,0.16821 0.25399,0.20837 0.52523,0.41925 0.78642,0.62888 0.34173,0.2749 0.67806,0.55005 1.03194,0.82495 0.26245,0.20335 0.5615,0.40846 0.83033,0.61257 1.00425,0.76269 2.01993,1.52588 3.1068,2.29284 0.25585,0.18076 0.53991,0.36252 0.80013,0.54353 1.14057,0.79332 2.29666,1.58965 3.51223,2.39201 0.12176,0.0803 0.25557,0.16067 0.37803,0.24101 1.31417,0.86387 2.65208,1.73401 4.03928,2.61294 -24.01746,29.74175 -72.32169,56.99207 -136.70834,73.83206 C 396.28846,567.69642 381.34506,525.45886 381.33183,481.41 l 0,-0.0251 0,-0.0251 c 0.066,-44.08077 15.08108,-86.32561 41.50715,-118.89871 z m -199.70851,32.49904 a 47.424184,108.97472 83.708848 0 0 -7.54602,0.0427 l 0,0 a 47.424184,108.97472 83.708848 0 0 -21.62268,1.43476 47.424184,108.97472 83.708848 0 0 -103.122377,59.07981 47.424184,108.97472 83.708848 0 0 0.01506,0.0678 47.424184,108.97472 83.708848 0 1 88.493887,-31.58572 47.424184,108.97472 83.708848 0 1 113.49917,35.13383 47.424184,108.97472 83.708848 0 0 14.63124,-27.49661 47.424184,108.97472 83.708848 0 0 -84.347,-36.67602 z m 229.91741,13.25449 a 25.45242,25.45242 0 0 0 -25.45226,25.45229 25.45242,25.45242 0 0 0 25.45226,25.4523 25.45242,25.45242 0 0 0 25.45232,-25.4523 25.45242,25.45242 0 0 0 -25.45232,-25.45229 z m -64.90946,224.73598 c -4.53277,16.29144 -15.35126,34.96637 -31.13041,50.77203 -16.55259,16.55078 -35.47545,27.4135 -51.65498,31.62689 -16.17606,4.21238 -28.37867,1.88514 -35.36281,-5.09332 -5.86015,-5.89342 -8.49104,-15.45721 -6.46446,-28.57813 1.77734,-11.50717 7.52566,-25.14451 16.83852,-38.70954 37.58046,-0.43407 73.90424,-3.88501 107.77414,-10.01793 z"
       id="path8311"
       inkscape:connector-curvature="0" />
  </g>
</svg>
