<?xml version="1.0" encoding="UTF-8" standalone="no"?>
<!-- Created with Inkscape (http://www.inkscape.org/) -->

<svg
   xmlns:dc="http://purl.org/dc/elements/1.1/"
   xmlns:cc="http://creativecommons.org/ns#"
   xmlns:rdf="http://www.w3.org/1999/02/22-rdf-syntax-ns#"
   xmlns:svg="http://www.w3.org/2000/svg"
   xmlns="http://www.w3.org/2000/svg"
   xmlns:sodipodi="http://sodipodi.sourceforge.net/DTD/sodipodi-0.dtd"
   xmlns:inkscape="http://www.inkscape.org/namespaces/inkscape"
   width="137.11086mm"
   height="178.79558mm"
   viewBox="0 0 485.82587 633.52763"
   id="svg2"
   version="1.1"
   inkscape:version="0.91 r13725"
   sodipodi:docname="goat.svg">
  <defs
     id="defs4" />
  <sodipodi:namedview
     id="base"
     pagecolor="#ffffff"
     bordercolor="#666666"
     borderopacity="1.0"
     inkscape:pageopacity="0.0"
     inkscape:pageshadow="2"
     inkscape:zoom="0.70710678"
     inkscape:cx="129.23147"
     inkscape:cy="449.1569"
     inkscape:document-units="px"
     inkscape:current-layer="layer1"
     showgrid="false"
     showborder="true"
     inkscape:object-paths="false"
     inkscape:object-nodes="true"
     fit-margin-top="0"
     fit-margin-left="0"
     fit-margin-right="0"
     fit-margin-bottom="0"
     inkscape:window-width="1920"
     inkscape:window-height="1015"
     inkscape:window-x="0"
     inkscape:window-y="0"
     inkscape:window-maximized="1" />
  <metadata
     id="metadata7">
    <rdf:RDF>
      <cc:Work
         rdf:about="">
        <dc:format>image/svg+xml</dc:format>
        <dc:type
           rdf:resource="http://purl.org/dc/dcmitype/StillImage" />
        <dc:title />
      </cc:Work>
    </rdf:RDF>
  </metadata>
  <g
     inkscape:label="Layer 1"
     inkscape:groupmode="layer"
     id="layer1"
     style="opacity:1"
     transform="translate(1234.5977,964.29358)">
    <g
       id="g8020">
      <path
         id="path7764"
         d="m -1177.7503,-964.29155 c -2.683,0.0328 -6.788,0.8315 -9.8906,4.24024 -3.1026,3.40874 -3.556,7.87056 -3.2129,10.70508 0.6863,5.66902 2.9691,9.0233 6.1328,13.75976 33.7149,50.47438 57.8253,88.52798 69.0879,152.35547 a 10.755461,10.755461 0 0 0 0.3008,1.23242 c -3.4765,4.73357 -6.6933,9.67775 -9.5898,14.83985 -7.2703,-4.28608 -15.1894,-7.6919 -23.5996,-9.95899 a 10.019516,10.019516 0 0 0 -0.039,-0.0117 c -32.185,-8.60483 -67.822,-1.27279 -83.4336,26.2793 -1.6787,2.9637 -2.5741,6.3089 -2.6016,9.71484 -0.2553,31.66591 26.9401,55.8342 59.1153,64.47461 a 10.019516,10.019516 0 0 0 0.035,0.008 c 11.4075,3.04069 23.086,4.02676 34.3125,2.77344 0.037,0.22463 0.058,0.4513 0.096,0.67578 a 10.019516,10.019516 0 0 0 0.021,0.24805 l 19.5059,139.12109 a 10.019516,10.019516 0 0 0 0.012,0.0566 c 0.066,0.45576 0.1796,0.90164 0.2773,1.35157 4.0822,37.5943 25.2096,69.76876 55.3848,89.92578 0,0 0,0.002 0,0.002 0.4722,7.65101 3.5659,14.52713 7.9316,23.22461 4.5425,9.04972 10.8062,19.87114 18.6016,33.37305 9.5759,16.58598 16.7537,29.11373 23.336,38.23437 3.2912,4.56033 6.4099,8.32113 10.1542,11.37305 3.7445,3.05192 8.62851,5.52734 14.127,5.52734 5.4985,0 10.38065,-2.47542 14.125,-5.52734 3.74436,-3.05191 6.86509,-6.81272 10.15625,-11.37305 6.58232,-9.12064 13.76002,-21.64839 23.33594,-38.23437 7.80879,-13.52521 14.08085,-24.36056 18.625,-33.41992 4.35259,-8.67747 7.44358,-15.54295 7.91015,-23.18164 30.14946,-20.14239 51.26337,-52.28472 55.36719,-89.8418 0.10617,-0.48491 0.23284,-0.96534 0.30274,-1.45703 a 10.019516,10.019516 0 0 0 0.002,-0.0195 l 19.63867,-140.05664 c 11.22127,1.25084 22.89441,0.26378 34.29688,-2.7754 l -0.41211,0.10157 a 10.019516,10.019516 0 0 0 0.44922,-0.10938 c 32.17508,-8.64039 59.37062,-32.80821 59.11523,-64.47461 a 10.019516,10.019516 0 0 0 0,-0.002 c -0.0283,-3.40607 -0.92415,-6.7495 -2.60352,-9.71289 l -0.002,-0.002 c -15.61216,-27.54977 -51.24568,-34.88192 -83.42969,-26.27735 a 10.019516,10.019516 0 0 0 -0.041,0.0117 c -8.37765,2.25818 -16.26739,5.64576 -23.51563,9.9082 -2.91159,-5.18399 -6.14412,-10.14768 -9.64062,-14.89843 a 10.755461,10.755461 0 0 0 0.26953,-1.12305 c 11.2626,-63.82749 35.37295,-101.88109 69.08789,-152.35547 3.16376,-4.73647 5.44655,-8.09077 6.13281,-13.75976 0.34313,-2.83451 -0.10838,-7.29634 -3.21094,-10.70508 -3.10255,-3.40874 -7.20758,-4.20746 -9.89062,-4.24024 -6.17069,-0.0753 -9.85067,1.95121 -14.81445,4.42383 -4.96379,2.47263 -10.53508,5.83329 -16.67969,9.9668 -12.28922,8.26703 -26.78324,19.6203 -41.18945,32.66406 -26.71127,24.18504 -53.39354,53.15296 -63.19336,81.80469 -15.62308,-5.27858 -32.30107,-8.15387 -49.48633,-8.23242 -0.17296,-7.9e-4 -0.34256,-0.0194 -0.51563,-0.0195 l 0.48828,0.0137 c -0.11155,-0.006 -0.22235,-0.01 -0.33398,-0.0137 a 10.019516,10.019516 0 0 0 -0.33594,-0.006 10.019516,10.019516 0 0 0 -0.0156,0 10.019516,10.019516 0 0 0 -0.008,0 l -0.004,0 c -17.42632,0.0165 -34.34052,2.90528 -50.16602,8.26757 -9.7969,-28.65484 -36.4808,-57.62676 -63.1951,-81.81447 -14.4062,-13.04376 -28.9002,-24.39703 -41.1894,-32.66406 -6.1446,-4.13351 -11.7159,-7.49417 -16.6797,-9.9668 -4.9638,-2.47262 -8.6438,-4.49917 -14.8145,-4.42383 z m 349.42388,34.60352 c -24.8274,38.11546 -44.66912,73.71236 -56.25,122.2793 -10.45237,-9.68339 -22.27545,-17.91515 -35.17579,-24.38086 8.82006,-20.44886 31.92834,-47.81141 55.88672,-69.50391 12.48647,-11.30555 24.90565,-21.00061 35.53907,-28.39453 z m -326.71678,0.002 c 10.6332,7.39382 23.0529,17.08729 35.539,28.39253 23.9584,21.6925 47.0687,49.05504 55.8887,69.50391 -12.9003,6.46571 -24.7234,14.69747 -35.1758,24.38086 -11.5808,-48.56641 -31.425,-84.16236 -56.2519,-122.27735 z m 111.916,94.70308 c -0.9751,0.33973 -1.9456,0.68835 -2.9121,1.04687 0.9664,-0.35852 1.9371,-0.70714 2.9121,-1.04687 z m 103.73437,0.2832 c 0.62629,0.22167 1.25033,0.44829 1.87305,0.67773 -0.62264,-0.22939 -1.24685,-0.4561 -1.87305,-0.67773 z m -107.97267,1.25586 c -1.1919,0.45457 -2.3746,0.92723 -3.5527,1.41016 1.1779,-0.48295 2.361,-0.95559 3.5527,-1.41016 z m 112.94337,0.60156 c 0.59333,0.23315 1.18556,0.46876 1.77539,0.70899 -0.58993,-0.24024 -1.18198,-0.47583 -1.77539,-0.70899 z m -117.83597,1.36328 c -1.1552,0.48627 -2.3041,0.98668 -3.4453,1.5 1.1414,-0.51361 2.2898,-1.01348 3.4453,-1.5 z m 122.33792,0.48633 c 0.71068,0.30541 1.41974,0.61397 2.125,0.92969 -0.70535,-0.31571 -1.41424,-0.62428 -2.125,-0.92969 z m -127.22852,1.67774 c -0.9076,0.41957 -1.8108,0.84661 -2.709,1.2832 0.8979,-0.43662 1.8017,-0.86361 2.709,-1.2832 z m 131.57423,0.26757 c 0.53542,0.24994 1.06749,0.50584 1.59961,0.76172 -0.53211,-0.25583 -1.06421,-0.51183 -1.59961,-0.76172 z m -136.16603,1.94727 c -0.8486,0.42689 -1.6916,0.86263 -2.5312,1.30469 0.8395,-0.4422 1.6828,-0.87767 2.5312,-1.30469 z m 140.94142,0.38476 c 0.46849,0.23872 0.93465,0.48125 1.40039,0.72461 -0.46573,-0.2433 -0.93191,-0.48594 -1.40039,-0.72461 z m -144.91992,1.68555 c -1.049,0.56667 -2.0888,1.14804 -3.1231,1.73828 1.0342,-0.59042 2.0742,-1.17144 3.1231,-1.73828 z m 149.77929,0.90235 c 0.42123,0.23402 0.84292,0.4672 1.26172,0.70507 -0.41891,-0.23787 -0.84037,-0.47104 -1.26172,-0.70507 z m -75.78711,0.47656 0.006,0 a 10.019516,10.019516 0 0 0 0.19336,0.004 c 52.62114,0.0686 99.55228,30.04505 120.27539,75.18946 a 10.019516,10.019516 0 0 0 15.32813,3.67187 c 7.32787,-5.80944 16.36474,-10.31231 26.28516,-12.98633 25.92684,-6.93167 51.118,-0.33108 60.82421,16.79883 a 10.019516,10.019516 0 0 0 0.002,0.002 c 0.15754,19.68665 -18.35931,37.99888 -44.27735,44.95898 -12.15953,3.24097 -24.4698,3.44992 -35.15039,0.73828 a 10.019516,10.019516 0 0 0 -0.32226,-0.0644 10.019516,10.019516 0 0 0 -0.52344,-0.10547 10.019516,10.019516 0 0 0 -0.008,-0.002 10.019516,10.019516 0 0 0 -0.002,0 10.019516,10.019516 0 0 0 -0.0859,-0.0176 10.019516,10.019516 0 0 0 -0.004,0 10.019516,10.019516 0 0 0 -0.11133,-0.0156 10.019516,10.019516 0 0 0 -0.11133,-0.0176 c -2e-5,-10e-6 -0.072,10e-6 -0.0762,0 a 10.019516,10.019516 0 0 0 -0.34179,-0.0332 10.019516,10.019516 0 0 0 -0.37305,-0.0371 10.019516,10.019516 0 0 0 -0.48047,-0.002 10.019516,10.019516 0 0 0 -0.26758,-0.002 c 4.2e-4,4e-5 0.009,0.002 0.01,0.002 a 10.019516,10.019516 0 0 0 -0.17383,0 c 0.005,-3.6e-4 0.0178,-0.002 0.0215,-0.002 a 10.019516,10.019516 0 0 0 -0.10937,0.002 10.019516,10.019516 0 0 0 -0.30469,0.0293 10.019516,10.019516 0 0 0 -0.0352,0.004 10.019516,10.019516 0 0 0 -0.18164,0.0176 10.019516,10.019516 0 0 0 -0.11718,0.0117 10.019516,10.019516 0 0 0 -0.004,0 10.019516,10.019516 0 0 0 -0.35547,0.0371 10.019516,10.019516 0 0 0 -0.36523,0.0723 10.019516,10.019516 0 0 0 -0.62891,0.12891 10.019516,10.019516 0 0 0 -0.2793,0.0859 10.019516,10.019516 0 0 0 -0.66601,0.20703 10.019516,10.019516 0 0 0 -0.27539,0.11523 10.019516,10.019516 0 0 0 -0.66406,0.28321 10.019516,10.019516 0 0 0 -0.875,0.47851 10.019516,10.019516 0 0 0 -0.0879,0.0586 10.019516,10.019516 0 0 0 -0.73632,0.50586 10.019516,10.019516 0 0 0 -0.0879,0.0742 10.019516,10.019516 0 0 0 -0.68165,0.57618 10.019516,10.019516 0 0 0 -0.69726,0.7207 10.019516,10.019516 0 0 0 -1.16211,1.62891 10.019516,10.019516 0 0 0 -0.45313,0.89257 10.019516,10.019516 0 0 0 -0.71289,2.38086 10.019516,10.019516 0 0 0 -0.0625,0.3418 l -0.004,0.0332 a 10.019516,10.019516 0 0 0 -0.0332,0.23242 c -0.27106,2.47751 -0.61293,4.9345 -1.0332,7.36915 -7.9e-4,0.005 -9.5e-4,0.009 -0.002,0.0137 l -0.0254,0.16211 a 10.019516,10.019516 0 0 0 -0.006,0.0625 l -19.97266,142.4375 0,0.006 a 10.019516,10.019516 0 0 0 -0.30078,1.5957 c -5.27075,50.5174 -47.46399,89.89191 -99.67546,94.42153 l 0,-61.38867 17.26172,0 a 10.000997,10.000997 0 1 0 0,-20 l -54.52342,0 a 10.000997,10.000997 0 1 0 0,20 l 17.2617,0 0,61.39063 c -52.258,-4.52646 -94.4849,-43.95953 -99.7051,-94.53711 a 10.019516,10.019516 0 0 0 -0.2851,-1.54883 10.019516,10.019516 0 0 0 0,-0.002 l -19.4473,-138.7187 a 10.019516,10.019516 0 0 0 -0.023,-0.20508 l -0.033,-0.20117 c -0.4661,-2.65924 -0.8392,-5.33057 -1.125,-8.01367 l 0,-0.01 -0.021,-0.1582 -0.022,-0.17383 a 10.019516,10.019516 0 0 0 -0.014,-0.0742 l -0.3828,-2.72656 a 10.019516,10.019516 0 0 0 -12.3867,-8.32227 c -10.6813,2.71208 -22.9949,2.50303 -35.1543,-0.73807 -25.9188,-6.9603 -44.4342,-25.27302 -44.2754,-44.96094 l 0,-0.002 c 9.7057,-17.12713 34.8964,-23.72764 60.8203,-16.79883 a 10.019516,10.019516 0 0 0 0,0.002 c 9.9528,2.68317 19.0148,7.20729 26.3535,13.04297 a 10.019516,10.019516 0 0 0 15.3438,-3.66797 c 20.7083,-45.17718 67.6591,-75.19057 120.31638,-75.2539 z m -78.64848,1.24804 c -0.913,0.53515 -1.8217,1.07742 -2.7226,1.63086 0.9007,-0.55364 1.8098,-1.09553 2.7226,-1.63086 z m 157.75981,0.16993 c 0.46311,0.27264 0.92088,0.5527 1.38086,0.83007 -0.45994,-0.27728 -0.91779,-0.55752 -1.38086,-0.83007 z m -162.35351,2.63476 c -0.6067,0.38495 -1.2097,0.77471 -1.8106,1.16797 0.6007,-0.39333 1.2041,-0.78296 1.8106,-1.16797 z m 166.97265,0.19922 c 0.40143,0.25594 0.80036,0.5158 1.19922,0.77539 -0.39882,-0.25949 -0.79783,-0.51955 -1.19922,-0.77539 z m -171.29495,2.64844 c -0.5911,0.40385 -1.1805,0.81068 -1.7656,1.22265 0.5853,-0.41234 1.1743,-0.81844 1.7656,-1.22265 z m 175.793,0.33594 c 0.37463,0.25798 0.74891,0.51608 1.12109,0.77734 -0.37218,-0.26119 -0.74646,-0.51944 -1.12109,-0.77734 z m -179.3672,2.17578 c -0.8073,0.58635 -1.6072,1.18132 -2.4023,1.7832 0.7947,-0.60188 1.5954,-1.19684 2.4023,-1.7832 z m -4.3066,3.25195 c -0.3617,0.28293 -0.7191,0.57126 -1.0782,0.85742 0.3589,-0.28622 0.7166,-0.57444 1.0782,-0.85742 z m -4.3379,3.5293 c -0.2344,0.19782 -0.468,0.39647 -0.7012,0.5957 0.2331,-0.19932 0.4668,-0.3978 0.7012,-0.5957 z m 199.82029,0.0566 c 0.17249,0.14572 0.34381,0.29296 0.51563,0.43945 -0.1718,-0.14643 -0.34316,-0.29379 -0.51563,-0.43945 z m 4.30469,3.78125 c 0.10454,0.0954 0.21019,0.18946 0.31445,0.28515 -0.10428,-0.0957 -0.20989,-0.18976 -0.31445,-0.28515 z m 10.20703,10.26758 c 0.0636,0.0705 0.12798,0.14028 0.19141,0.21093 -0.0634,-0.0707 -0.12783,-0.1404 -0.19141,-0.21093 z m -70.85547,370.6289 c -3.86671,7.20597 -8.58005,15.53393 -14.66211,26.06836 -9.57591,16.58596 -16.7627,28.93702 -22.15039,36.40235 -2.69385,3.73266 -4.95981,6.19058 -6.30273,7.28515 -0.34735,0.28312 -0.36795,0.27695 -0.53711,0.39258 -0.16915,-0.11563 -0.18975,-0.10946 -0.53711,-0.39258 -1.34292,-1.09457 -3.61085,-3.55249 -6.30469,-7.28515 -5.3876,-7.46533 -12.5725,-19.81639 -22.1484,-36.40235 -6.0716,-10.51635 -10.7802,-18.83393 -14.6446,-26.0332 13.9312,4.81825 28.6729,7.35301 43.61332,7.38281 a 10.755461,10.755461 0 0 0 0.0488,0 c 14.94673,-0.0394 29.69204,-2.58687 43.625,-7.41797 z"
         style="color:#000000;font-style:normal;font-variant:normal;font-weight:normal;font-stretch:normal;font-size:medium;line-height:normal;font-family:sans-serif;text-indent:0;text-align:start;text-decoration:none;text-decoration-line:none;text-decoration-style:solid;text-decoration-color:#000000;letter-spacing:normal;word-spacing:normal;text-transform:none;direction:ltr;block-progression:tb;writing-mode:lr-tb;baseline-shift:baseline;text-anchor:start;white-space:normal;clip-rule:nonzero;display:inline;overflow:visible;visibility:visible;opacity:1;isolation:auto;mix-blend-mode:normal;color-interpolation:sRGB;color-interpolation-filters:linearRGB;solid-color:#000000;solid-opacity:1;fill:#333333;fill-opacity:1;fill-rule:nonzero;stroke:none;stroke-width:20.03703499;stroke-linecap:round;stroke-linejoin:round;stroke-miterlimit:4;stroke-dasharray:none;stroke-dashoffset:0;stroke-opacity:1;color-rendering:auto;image-rendering:auto;shape-rendering:auto;text-rendering:auto;enable-background:accumulate"
         inkscape:connector-curvature="0" />
      <path
         inkscape:connector-curvature="0"
         id="path8013"
         d="m -1076.6847,-698.81649 a 21,21 0 0 0 -21,21 21,21 0 0 0 21,21 21,21 0 0 0 21,-21 21,21 0 0 0 -21,-21 z m 169.99998,0 a 21,21 0 0 0 -21,21 21,21 0 0 0 21,21 21,21 0 0 0 21,-21 21,21 0 0 0 -21,-21 z"
         style="opacity:1;fill:#333333;fill-opacity:1;stroke:none;stroke-width:20;stroke-linecap:round;stroke-linejoin:round;stroke-miterlimit:4;stroke-dasharray:none;stroke-opacity:1" />
    </g>
  </g>
</svg>
