<?xml version="1.0" encoding="UTF-8" standalone="no"?>
<!-- Created with Inkscape (http://www.inkscape.org/) -->

<svg
   xmlns:dc="http://purl.org/dc/elements/1.1/"
   xmlns:cc="http://creativecommons.org/ns#"
   xmlns:rdf="http://www.w3.org/1999/02/22-rdf-syntax-ns#"
   xmlns:svg="http://www.w3.org/2000/svg"
   xmlns="http://www.w3.org/2000/svg"
   xmlns:sodipodi="http://sodipodi.sourceforge.net/DTD/sodipodi-0.dtd"
   xmlns:inkscape="http://www.inkscape.org/namespaces/inkscape"
   width="616.99597mm"
   height="475.03806mm"
   viewBox="0 0 2186.2062 1683.2057"
   id="svg10639"
   version="1.1"
   inkscape:version="0.91 r13725"
   sodipodi:docname="mountain.svg">
  <defs
     id="defs10641" />
  <sodipodi:namedview
     id="base"
     pagecolor="#ffffff"
     bordercolor="#666666"
     borderopacity="1.0"
     inkscape:pageopacity="0.0"
     inkscape:pageshadow="2"
     inkscape:zoom="0.0875"
     inkscape:cx="-296.78567"
     inkscape:cy="1160.3229"
     inkscape:document-units="px"
     inkscape:current-layer="layer1"
     showgrid="false"
     inkscape:object-nodes="true"
     showborder="true"
     inkscape:object-paths="true"
     inkscape:window-width="1920"
     inkscape:window-height="1015"
     inkscape:window-x="0"
     inkscape:window-y="0"
     inkscape:window-maximized="1"
     fit-margin-top="0"
     fit-margin-left="0"
     fit-margin-right="0"
     fit-margin-bottom="0" />
  <metadata
     id="metadata10644">
    <rdf:RDF>
      <cc:Work
         rdf:about="">
        <dc:format>image/svg+xml</dc:format>
        <dc:type
           rdf:resource="http://purl.org/dc/dcmitype/StillImage" />
        <dc:title></dc:title>
      </cc:Work>
    </rdf:RDF>
  </metadata>
  <g
     inkscape:label="Layer 1"
     inkscape:groupmode="layer"
     id="layer1"
     transform="translate(1382.0156,1493.1432)">
    <path
       style="fill:#333333;fill-rule:evenodd;stroke:none;stroke-width:1px;stroke-linecap:butt;stroke-linejoin:miter;stroke-opacity:1"
       d="m -138.2168,-1493.0957 a 43.0043,43.0043 0 0 0 -39.25976,21.4473 l -315.84571,547.06051 -140.86718,-243.98831 a 43.0043,43.0043 0 0 0 -35.2168,-21.4472 43.0043,43.0043 0 0 0 -39.25977,21.4472 L -1376.2578,-12.275391 a 43.0043,43.0043 0 0 0 37.2383,64.5 l 466.29098,0 -39.84375,69.009771 a 45.890609,45.890609 0 0 0 39.73829,68.82812 l 1099.95312,0 a 45.890609,45.890609 0 0 0 39.73828,-68.82812 l -135.24023,-234.24415 626.6914,0 a 45.890609,45.890609 0 0 0 39.73829,-68.82812 L 248.07031,-1134.4258 a 45.890609,45.890609 0 0 0 -37.58008,-22.8887 45.890609,45.890609 0 0 0 -41.89648,22.8887 l -38.44922,66.5957 L -103,-1471.6484 a 43.0043,43.0043 0 0 0 -35.2168,-21.4473 z m -78.49804,261.4062 0,261.69927 99.91015,57.68359 0,272.20508 -27.94726,48.40625 -138.36719,-239.65821 a 45.890609,45.890609 0 0 0 -37.58008,-22.88867 45.890609,45.890609 0 0 0 -41.89648,22.88867 l -38.44922,66.59571 -42.62696,-73.83203 226.95704,-393.09966 z m 399.875,255.57817 0,213.97266 85.86132,49.57226 0,204.71289 -174.978511,303.07227 -15.410157,0 -170.40039,-295.14258 274.927738,-476.1875 z m -931.06446,47.49414 0,261.69922 99.91016,57.68359 0,272.20508 -175.08398,303.253909 -441.46488,0 516.6387,-894.841799 z m 399.875,255.57813 0,213.97265 85.86133,49.57227 0,204.71289 -174.97851,303.072266 -356.21094,0 445.32812,-771.330076 z"
       id="path11440"
       inkscape:connector-curvature="0" />
    <path
       id="path11481"
       d="m -138.2168,-1493.0957 a 43.0043,43.0043 0 0 0 -39.25976,21.4473 l -315.84571,547.06051 -140.86718,-243.98831 a 43.0043,43.0043 0 0 0 -35.2168,-21.4472 43.0043,43.0043 0 0 0 -39.25977,21.4472 L -1376.2578,-12.275391 a 43.0043,43.0043 0 0 0 37.2383,64.5 l 466.29098,0 -39.84375,69.009771 a 45.890609,45.890609 0 0 0 39.73829,68.82812 l 1099.95312,0 a 45.890609,45.890609 0 0 0 39.73828,-68.82812 l -135.24023,-234.24415 626.6914,0 a 45.890609,45.890609 0 0 0 39.73829,-68.82812 L 248.07031,-1134.4258 a 45.890609,45.890609 0 0 0 -37.58008,-22.8887 45.890609,45.890609 0 0 0 -41.89648,22.8887 l -38.44922,66.5957 L -103,-1471.6484 a 43.0043,43.0043 0 0 0 -35.2168,-21.4473 z m -78.49804,261.4062 0,261.69927 99.91015,57.68359 0,272.20508 -27.94726,48.40625 -138.36719,-239.65821 a 45.890609,45.890609 0 0 0 -37.58008,-22.88867 45.890609,45.890609 0 0 0 -41.89648,22.88867 l -38.44922,66.59571 -42.62696,-73.83203 226.95704,-393.09966 z m 399.875,255.57817 0,213.97266 85.86132,49.57226 0,204.71289 -174.978511,303.07227 -15.410157,0 -170.40039,-295.14258 274.927738,-476.1875 z m -931.06446,47.49414 0,261.69922 99.91016,57.68359 0,272.20508 -175.08398,303.253909 -441.46488,0 516.6387,-894.841799 z m 399.875,255.57813 0,213.97265 85.86133,49.57227 0,204.71289 -174.97851,303.072266 -356.21094,0 445.32812,-771.330076 z"
       style="fill:#333333;fill-rule:evenodd;stroke:none;stroke-width:1px;stroke-linecap:butt;stroke-linejoin:miter;stroke-opacity:1"
       inkscape:connector-curvature="0" />
  </g>
</svg>
