<?xml version="1.0" encoding="UTF-8" standalone="no"?>
<!-- Created with Inkscape (http://www.inkscape.org/) -->

<svg
   xmlns:dc="http://purl.org/dc/elements/1.1/"
   xmlns:cc="http://creativecommons.org/ns#"
   xmlns:rdf="http://www.w3.org/1999/02/22-rdf-syntax-ns#"
   xmlns:svg="http://www.w3.org/2000/svg"
   xmlns="http://www.w3.org/2000/svg"
   xmlns:sodipodi="http://sodipodi.sourceforge.net/DTD/sodipodi-0.dtd"
   xmlns:inkscape="http://www.inkscape.org/namespaces/inkscape"
   width="566.01556mm"
   height="359.19504mm"
   viewBox="0 0 2005.567 1272.7383"
   id="svg11973"
   version="1.1"
   inkscape:version="0.91 r13725"
   sodipodi:docname="plains.svg">
  <defs
     id="defs11975">
    <inkscape:perspective
       sodipodi:type="inkscape:persp3d"
       inkscape:vp_x="0 : 526.1811 : 1"
       inkscape:vp_y="0 : 999.99999 : 0"
       inkscape:vp_z="744.09448 : 526.1811 : 1"
       inkscape:persp3d-origin="372.04723 : 350.7874 : 1"
       id="perspective12879" />
  </defs>
  <sodipodi:namedview
     id="base"
     pagecolor="#ffffff"
     bordercolor="#666666"
     borderopacity="1.0"
     inkscape:pageopacity="0.0"
     inkscape:pageshadow="2"
     inkscape:zoom="0.0875"
     inkscape:cx="817.57328"
     inkscape:cy="1970.6762"
     inkscape:document-units="px"
     inkscape:current-layer="layer1"
     showgrid="false"
     showborder="true"
     inkscape:object-nodes="false"
     inkscape:object-paths="false"
     inkscape:snap-intersection-paths="false"
     inkscape:snap-smooth-nodes="false"
     inkscape:window-width="1920"
     inkscape:window-height="1015"
     inkscape:window-x="0"
     inkscape:window-y="0"
     inkscape:window-maximized="1"
     fit-margin-top="0"
     fit-margin-left="0"
     fit-margin-right="0"
     fit-margin-bottom="0" />
  <metadata
     id="metadata11978">
    <rdf:RDF>
      <cc:Work
         rdf:about="">
        <dc:format>image/svg+xml</dc:format>
        <dc:type
           rdf:resource="http://purl.org/dc/dcmitype/StillImage" />
        <dc:title></dc:title>
      </cc:Work>
    </rdf:RDF>
  </metadata>
  <g
     inkscape:label="Layer 1"
     inkscape:groupmode="layer"
     id="layer1"
     transform="translate(5340.2677,1893.5137)">
    <path
       style="opacity:1;fill:#333333;fill-opacity:1;stroke:none;stroke-width:64;stroke-linecap:round;stroke-linejoin:round;stroke-miterlimit:4;stroke-dasharray:none;stroke-opacity:1"
       d="m -4837.4004,-1893.5137 c -14.7439,0 -81.0907,114.9171 -73.7187,127.6856 1.5614,2.7045 8.7827,4.8298 19.207,6.3886 -31.0885,50.3157 -61.662,112.5115 -55.293,123.543 1.5884,2.7512 7.1006,5.1015 15.3711,7.0567 -32.3535,57.2239 -58.3935,114.9031 -51.459,126.914 6.0544,10.4864 54.845,16.6076 110.8731,18.3906 l 0,108.2969 c -101.444,26.2697 -195.0085,73.1525 -272.1406,138.0039 -124.3958,104.5899 -195.7075,248.19845 -195.7071,398.59182 a 32.0032,32.0032 0 0 0 0,0.18946 c 0.405,68.10838 15.4294,135.57389 44.1504,198.89648 a 32.0032,32.0032 0 0 0 29.1426,18.78125 l 171.707,0 1018.8203,0 709.7461,0 a 32.0032,32.0032 0 0 0 31.7422,-36.06055 c -29.9995,-234.54205 -225.4467,-419.32856 -478.2246,-479.54296 l 0,-88.2109 c 54.1576,-1.7235 101.3176,-7.6412 107.1699,-17.7774 6.7029,-11.6098 -18.4669,-67.3624 -49.7402,-122.6758 7.9943,-1.8898 13.324,-4.1629 14.8594,-6.8222 6.1563,-10.6631 -23.3988,-70.7821 -53.4493,-119.418 10.0762,-1.5068 17.059,-3.5596 18.5684,-6.1738 7.1257,-12.3423 -57.0082,-123.4239 -71.2598,-123.4239 -14.2517,0 -78.3856,111.0816 -71.2597,123.4239 1.5093,2.6142 8.4921,4.667 18.5683,6.1738 -15.0498,24.3576 -29.9743,51.5934 -40.3515,74.0566 -10.4872,-21.2681 -22.5496,-43.9869 -35.3907,-66.6992 11.2837,-2.6675 18.8056,-5.8734 20.9727,-9.6269 8.6893,-15.0505 -33.0227,-99.906 -75.4375,-168.5528 14.2221,-2.1267 24.0728,-5.0269 26.2031,-8.7168 10.0577,-17.4203 -80.4627,-174.2031 -100.5781,-174.2031 -20.1154,0 -110.634,156.7828 -100.5762,174.2031 2.1303,3.6899 11.983,6.5901 26.2051,8.7168 -42.4147,68.6468 -84.1269,153.5023 -75.4375,168.5528 2.1671,3.7535 9.6871,6.9594 20.9707,9.6269 -44.1406,78.0718 -79.6679,156.7657 -70.207,173.1524 8.2602,14.3068 74.8272,22.6572 151.2676,25.0898 l 0,108.8945 c -113.4893,-127.7783 -285.1644,-207.568 -471.9297,-220.9101 l 0,-41.0567 c 39.6956,-1.2633 74.2613,-5.5998 78.5508,-13.0293 4.913,-8.5096 -13.5348,-49.3751 -36.4571,-89.9179 5.8596,-1.3852 9.7653,-3.0508 10.8907,-5 4.5123,-7.8157 -17.1498,-51.8809 -39.1758,-87.5293 7.3855,-1.1044 12.503,-2.6093 13.6093,-4.5254 5.2229,-9.0465 -41.7845,-90.4649 -52.2304,-90.4649 -10.446,0 -57.4535,81.4184 -52.2305,90.4649 1.1063,1.9161 6.2239,3.421 13.6094,4.5254 -11.031,17.8533 -21.9701,37.8164 -29.5762,54.2812 -7.6868,-15.5888 -16.5273,-32.2413 -25.9394,-48.8886 8.2705,-1.9552 13.7826,-4.3055 15.371,-7.0567 6.369,-11.0315 -24.2044,-73.2273 -55.2929,-123.543 10.4243,-1.5588 17.6456,-3.6841 19.207,-6.3886 7.372,-12.7685 -58.9768,-127.6856 -73.7207,-127.6856 z m 94.1973,406.0117 c -7.6354,17.6956 -11.5817,31.2285 -8.9903,35.7168 4.2894,7.4295 38.8572,11.766 78.5528,13.0293 l 0,39.1016 c -1.7833,-0.014 -3.5644,-0.041 -5.3496,-0.043 a 32.0032,32.0032 0 0 0 -0.037,0 c -41.6771,10e-5 -82.9568,3.33 -123.3516,9.8164 l 0,-93.6543 c 21.462,-0.683 41.8334,-2.0092 59.1758,-3.9668 z m 64.1386,151.8047 0.037,0 c 193.0513,0.2345 372.2092,78.5895 483.0136,205.9825 -84.1979,23.2452 -162.5979,60.777 -230.25,110.9726 0.014,0.02 0.027,0.041 0.041,0.061 -4.1722,-5.9294 -9.1921,-11.6746 -14.9746,-17.1114 a 15.135602,15.135602 0 0 0 -0.02,-0.018 c -0.2569,-0.2407 -0.5361,-0.4473 -0.7949,-0.6856 4.4698,-9.8634 2.9984,-21.3614 -0.627,-31.2148 -4.6507,-12.6399 -13.3182,-25.037 -25.1386,-36.1504 a 15.135602,15.135602 0 0 0 -0.01,-0.01 c -4.5988,-4.3169 -9.5085,-8.1619 -14.5918,-11.5625 -0.013,-7.4091 -2.2451,-14.6929 -5.3457,-21.6133 -4.9813,-11.1178 -12.9583,-21.9515 -23.2891,-31.6719 a 15.135602,15.135602 0 0 0 -0.014,-0.012 c -5.9246,-5.5625 -12.3512,-10.3945 -19.0489,-14.3945 -9.9706,-14.1548 -26.9282,-22.0102 -47.3515,-28.1875 -22.1364,-6.6956 -49.1532,-10.4124 -78.1328,-10.4258 a 15.135602,15.135602 0 0 0 -0.014,0 l 0,0 c -27.4086,0.01 -53.1698,3.3452 -74.6895,9.4043 -19.9063,5.6048 -36.4189,12.9339 -47.4629,25.2265 -9.3911,4.49 -18.4028,10.7327 -26.5488,18.377 a 15.135602,15.135602 0 0 0 -0.016,0.014 c -10.3305,9.7203 -18.308,20.5524 -23.2891,31.67 -3.1005,6.9202 -5.3303,14.2045 -5.3437,21.6133 -5.0835,3.4009 -9.9948,7.2472 -14.5938,11.5644 a 15.135602,15.135602 0 0 0 -0.01,0.01 c -11.8204,11.1135 -20.4882,23.5104 -25.1387,36.1504 -3.6252,9.8531 -5.0966,21.3498 -0.627,31.2129 -0.2588,0.2383 -0.5379,0.4468 -0.7949,0.6875 a 15.135602,15.135602 0 0 0 -0.018,0.016 c -11.82,11.1132 -20.4879,23.5108 -25.1386,36.15037 -3.7265,10.128 -5.1893,21.99537 -0.25,32.03711 -10.3445,10.3748 -18.0134,21.74227 -22.2754,33.32617 -2.8536,7.75572 -4.3755,16.5325 -2.7207,24.72852 -88.1428,55.33558 -156.716,132.53935 -193.1797,224.77734 l -128.1113,0 c -19.8695,-49.74449 -30.1619,-101.64788 -30.4844,-153.9668 0.031,-130.19871 61.3039,-255.68561 172.8906,-349.50581 111.6066,-93.837 264.5641,-147.4409 424.3105,-147.4493 z m 703.2715,44.6016 c -10.4171,24.1425 -15.8011,42.605 -12.2656,48.7285 5.8521,10.1362 53.0143,16.0539 107.1719,17.7774 l 0,75.3027 c -36.2558,-5.2315 -73.4243,-7.962 -111.2266,-7.9727 a 32.0032,32.0032 0 0 0 -0.055,0 c -21.5885,0.031 -43.0634,0.9605 -64.3593,2.75 l 0,-131.1738 c 29.2811,-0.9319 57.0737,-2.7413 80.7343,-5.4121 z m -679.7832,99.6191 0,0 0.012,0 c 26.3432,0.013 50.8777,3.5367 69.373,9.1309 18.4981,5.5951 30.124,14.2872 32.254,17.9902 a 15.135602,15.135602 0 0 0 5.9082,5.7598 c 5.4051,2.9298 11.1089,7.0682 16.2832,11.9258 7.7016,7.2496 13.4397,15.3912 16.3964,21.9902 2.9582,6.6026 2.366,11.0066 2.3946,10.9395 a 15.135602,15.135602 0 0 0 6.998,19.3886 c 5.7327,2.9503 11.8958,7.3281 17.4512,12.543 8.836,8.31 14.9337,17.6831 17.457,24.541 1.7786,4.8343 1.5251,7.0931 1.4805,7.7852 a 15.135602,15.135602 0 0 0 -3.459,26.9492 c 3.7839,2.4927 7.5661,5.4811 11.0977,8.7891 8.8374,8.3107 14.9355,17.68443 17.4589,24.54293 1.7702,4.8111 1.5289,7.06494 1.4825,7.76954 a 15.135602,15.135602 0 0 0 -1.4102,0.54492 15.135602,15.135602 0 0 0 -2.8144,26.01758 c 2.6734,1.9604 5.3049,4.14542 7.8086,6.48632 8.838,8.3108 14.9372,17.68407 17.4609,24.54297 1.7375,4.7222 1.5343,6.95904 1.4824,7.71094 a 15.135602,15.135602 0 0 0 -9.1015,22.66602 c -1.2453,0.99487 -3.0024,2.22578 -5.5137,3.59179 -0.8371,0.45534 -1.7581,0.92463 -2.7715,1.40625 -10.1324,4.8154 -27.0254,9.98732 -49.0371,14.32032 -41.2719,8.12437 -97.5403,13.06278 -156.7988,13.64843 -3.9506,0.0391 -7.9151,0.0586 -11.8887,0.0586 -63.5774,0 -124.6641,-5.04104 -168.6875,-13.70703 -22.0116,-4.333 -38.9027,-9.50492 -49.0352,-14.32032 -4.0245,-1.9125 -6.5796,-3.64365 -8.2461,-4.96875 a 15.135602,15.135602 0 0 0 -12.455,-22.61914 c -0.57,-0.026 -0.6263,-0.0607 -0.8555,-0.0977 -0.054,-0.7681 -0.2395,-2.99886 1.4863,-7.68946 2.5235,-6.8588 8.621,-16.23207 17.459,-24.54297 2.5023,-2.3391 5.133,-4.52137 7.8047,-6.48047 a 15.135602,15.135602 0 0 0 -4.2246,-26.57617 c -0.048,-0.7143 -0.2813,-2.96441 1.4824,-7.75781 2.5224,-6.8555 8.6163,-16.22349 17.4473,-24.53129 l 0.01,-0.01 c 3.5329,-3.3102 7.3157,-6.3005 11.1016,-8.7949 a 15.135602,15.135602 0 0 0 -3.459,-26.959 c -0.046,-0.6993 -0.2912,-2.9546 1.4824,-7.7754 2.5232,-6.858 8.6206,-16.2307 17.4571,-24.541 l 0.01,-0.01 c 5.5535,-5.2119 11.7132,-9.586 17.4434,-12.5351 a 15.135602,15.135602 0 0 0 6.998,-19.3887 c 0.029,0.067 -0.5635,-4.3369 2.3946,-10.9394 2.9573,-6.6005 8.696,-14.7452 16.4004,-21.9961 6.7874,-6.3677 14.4747,-11.4318 21.0859,-14.2422 a 15.135602,15.135602 0 0 0 6.0605,-4.6836 c 3.5543,-4.6064 16.1652,-12.4835 34.3497,-17.6035 18.1814,-5.1192 41.5746,-8.2651 66.4843,-8.2735 z m 92.2071,63.9161 c -6.1009,0.082 -10.9467,5.0588 -10.8653,11.1601 l 0.1817,13.6426 -11.4844,-6.4277 c -4.7608,-3.8177 -11.6646,-3.0577 -15.4824,1.7031 l -8.2344,10.2676 -4.9512,-12.7149 c -1.9374,-4.9759 -7.0482,-7.7376 -12.1054,-6.8672 -0.7225,0.1246 -1.4433,0.3229 -2.1543,0.5996 -5.6866,2.2141 -8.4818,8.5752 -6.2676,14.2618 l 11.6972,30.0429 c 0,0.016 0.012,0.026 0.018,0.041 0.6553,1.902 1.8394,3.6489 3.5313,5.0059 1.6364,1.3121 3.5264,2.0857 5.457,2.3398 3.6864,0.4847 7.5202,-0.9187 10.0254,-4.0429 l 14.2402,-17.7559 21.5996,12.0899 c 3.4944,1.9559 7.5756,1.8164 10.8106,-0.016 1.6944,-0.9602 3.1572,-2.3845 4.1816,-4.2148 1.0592,-1.8926 1.5009,-3.9579 1.3946,-5.9668 0,-0.016 0.01,-0.031 0,-0.045 l -0.4297,-32.2364 c -0.081,-6.1012 -5.059,-10.9476 -11.1602,-10.8671 l 0,0 z m 571.2675,34.3007 c 292.8644,0.095 536.6898,176.29229 587.2735,408.48441 l -649.2149,0 c -53.4331,-135.16139 -175.8241,-238.01234 -327.6738,-287.10547 71.0881,-51.06504 156.161,-87.88204 248.4395,-106.66404 a 32.0032,32.0032 0 0 0 4.0625,-1.1485 c 44.5213,-8.8555 90.5047,-13.4978 137.1132,-13.5664 z m -759.416,3.6114 c -5.2297,0.092 -9.493,4.2485 -9.666,9.5371 l -0.9434,28.8418 0,0.039 c -0.13,1.796 0.2276,3.6493 1.1426,5.3614 0.8851,1.6558 2.1703,2.9572 3.6699,3.8457 2.8633,1.696 6.5128,1.8928 9.6739,0.2031 l 17.9668,-9.6035 13.5234,17.5508 c 2.1878,2.8393 5.5951,4.1608 8.9024,3.791 1.7323,-0.194 3.4366,-0.8541 4.9238,-2 1.5376,-1.185 2.6286,-2.7272 3.248,-4.418 0.01,-0.012 0.013,-0.024 0.016,-0.037 l 10.9902,-26.6817 c 2.0801,-5.0506 -0.3106,-10.793 -5.3613,-12.873 -5.0505,-2.08 -10.7909,0.3127 -12.8711,5.3633 l -4.6524,11.291 -7.1894,-9.3301 c -2.5749,-4.8172 -8.5245,-6.6218 -13.3418,-4.0469 l -10.3907,5.5528 0.4004,-12.2051 c 0.1563,-4.7765 -3.0769,-8.8487 -7.5449,-9.9121 l 0,0 c -0.6382,-0.1516 -1.3004,-0.2432 -1.9825,-0.2656 -0.1706,-0.01 -0.341,-0.01 -0.5097,0 l 0,0 z m 243.3574,56.4511 c -0.3006,0.011 -0.6017,0.038 -0.9062,0.08 -4.8724,0.6748 -8.2529,5.139 -7.5781,10.0117 l 1.5097,10.8946 -9.8281,-3.9922 c -4.1895,-2.5779 -9.6367,-1.2813 -12.2148,2.9082 l -5.5606,9.0351 -5.2285,-9.6757 c -2.0465,-3.7858 -6.4116,-5.4837 -10.3691,-4.2833 -0.5654,0.1718 -1.1211,0.4031 -1.6621,0.6954 -4.3273,2.3392 -5.9291,7.706 -3.5899,12.0332 l 12.3574,22.86129 c 10e-5,0.013 0.011,0.0193 0.018,0.0293 0.7141,1.4559 1.8354,2.73594 3.3242,3.65234 1.4402,0.886 3.03,1.31588 4.5996,1.32618 2.9971,0.019 5.9255,-1.48508 7.6172,-4.23438 l 9.6153,-15.62695 18.4843,7.51367 c 2.9905,1.2153 6.2401,0.69525 8.6446,-1.09375 1.2593,-0.9372 2.2873,-2.22266 2.9238,-3.78906 0.6581,-1.6196 0.8051,-3.31581 0.5195,-4.91211 -2e-4,-0.012 0.01,-0.0242 0,-0.0352 l -3.5644,-25.74213 c -0.6326,-4.568 -4.5974,-7.8232 -9.1055,-7.6563 l -0.01,0 z m -304.2773,21.67 c -4.238,0.1384 -7.9158,3.2245 -8.6563,7.5742 l -4.4726,26.26951 c -0.01,0.011 -0.01,0.0241 -0.01,0.0371 -0.3437,1.627 -0.2459,3.36978 0.377,5.05078 0.6026,1.6257 1.6142,2.97586 2.875,3.97656 2.4076,1.91 5.7225,2.54688 8.8262,1.39648 l 17.6386,-6.53906 10.1778,17.75195 c 1.6464,2.8716 4.5995,4.50458 7.6718,4.58008 1.6092,0.039 3.2518,-0.35059 4.7559,-1.21289 1.5552,-0.8918 2.745,-2.16722 3.5234,-3.63672 0.01,-0.01 0.015,-0.0192 0.02,-0.0312 l 13.3925,-23.03906 c 2.5352,-4.3608 1.066,-9.91207 -3.2949,-12.44727 -4.3607,-2.5351 -9.9119,-1.06577 -12.4472,3.29493 l -5.6661,9.75 -5.4121,-9.4375 c -1.7532,-4.7297 -6.9733,-7.1244 -11.7031,-5.3711 l -10.1992,3.7793 1.8926,-11.11719 c 0.7408,-4.351 -1.7088,-8.48 -5.6641,-10.0118 -0.5647,-0.2184 -1.1604,-0.3863 -1.7813,-0.4921 -0.6203,-0.1056 -1.2353,-0.1442 -1.8398,-0.125 l 0,0 z m 187.1875,40.58199 c -4.8642,-0.1087 -9.0892,3.46399 -9.6992,8.40039 l -1.4531,11.77344 -9.1348,-6.89258 c -3.6498,-3.8507 -9.6863,-4.01123 -13.5371,-0.36133 l -8.3047,7.87109 -2.7617,-11.53711 c -1.081,-4.5143 -5.1568,-7.49575 -9.6153,-7.34375 l 0,0 c -0.6367,0.022 -1.2812,0.10537 -1.9258,0.25977 -5.1598,1.2355 -8.3175,6.38532 -7.082,11.54492 l 6.5273,27.25781 c 0,0.013 0.01,0.0261 0.01,0.0391 0.3398,1.7157 1.1521,3.35991 2.4492,4.72851 1.2546,1.3236 2.7909,2.21131 4.4238,2.6582 3.118,0.85281 6.5865,0.10048 9.1133,-2.29492 l 14.3633,-13.61328 17.1777,12.96485 c 2.779,2.0974 6.3095,2.45801 9.3125,1.26171 1.5727,-0.6269 3.001,-1.68111 4.0996,-3.13671 1.1358,-1.5051 1.7606,-3.22966 1.9063,-4.97266 0,-0.013 0.01,-0.0261 0.01,-0.0391 l 3.4375,-27.81836 c 0.6506,-5.2655 -3.0645,-10.02919 -8.3301,-10.67969 -0.3291,-0.041 -0.6563,-0.0633 -0.9805,-0.0703 l 0,0 z m 232.7324,39.68554 c 0.027,0.0864 0.06,0.16931 0.086,0.25586 0.016,0.0525 0.031,0.10564 0.047,0.15821 0.091,0.30122 0.177,0.60484 0.2637,0.9082 -0.1267,-0.44341 -0.26,-0.88351 -0.3965,-1.32227 z m 0.5625,1.89649 c 0,0.0112 0.01,0.0221 0.01,0.0332 0.1441,0.52612 0.281,1.05448 0.4101,1.58594 0,0.004 0,0.008 0,0.0117 0.031,0.1263 0.056,0.25428 0.086,0.38086 -0.1588,-0.67402 -0.3249,-1.34611 -0.5078,-2.01172 z m 0.6778,2.76172 c 0.04,0.18058 0.085,0.35996 0.123,0.54101 0,0.009 0,0.0182 0.01,0.0274 0.074,0.35372 0.1384,0.70912 0.205,1.06445 -0.1025,-0.54607 -0.2143,-1.0907 -0.3339,-1.63281 z m 0.4492,2.23633 c 0.1168,0.66742 0.2157,1.33847 0.3047,2.00976 -0.089,-0.67167 -0.1876,-1.34197 -0.3047,-2.00976 z m 0.4062,2.85546 c 0.021,0.18831 0.049,0.37599 0.068,0.56446 1e-4,10e-4 -1e-4,0.003 0,0.004 0.033,0.32469 0.054,0.64959 0.08,0.97461 -0.041,-0.51476 -0.09,-1.02921 -0.1485,-1.54297 z m 0.2051,2.24024 c 0.037,0.58647 0.064,1.17345 0.076,1.75976 0,0 0,0.002 0,0.002 0,0.0821 0,0.16402 0,0.24609 -0.011,-0.6693 -0.034,-1.33821 -0.076,-2.00781 z m 0.076,2.9082 c 0,0.45836 -0.016,0.91582 -0.035,1.37305 0.02,-0.45718 0.032,-0.91474 0.035,-1.37305 z m -0.074,2.23828 c 0,0.0325 0,0.0652 -0.01,0.0977 -0.034,0.4915 -0.081,0.98155 -0.1348,1.4707 -0.01,0.0728 -0.013,0.146 -0.022,0.21875 0,0.0431 -0.012,0.0858 -0.017,0.12891 0.077,-0.63641 0.1374,-1.27551 0.1797,-1.91602 z m -0.3125,2.85547 c -0.023,0.15097 -0.04,0.30248 -0.065,0.45313 -0.01,0.052 -0.015,0.10431 -0.023,0.15625 -0.04,0.23712 -0.092,0.47274 -0.1368,0.70898 0.083,-0.43805 0.1592,-0.87738 0.2247,-1.31836 z m -0.9356,4.3418 c 122.8141,42.52351 218.6442,123.26461 266.7422,222.15039 l -922.9453,0 c 34.0506,-70.14526 91.8424,-130.41422 164.9668,-174.7168 13.5728,5.92564 31.0359,10.81066 52.5957,15.05469 47.0042,9.2528 109.3797,14.27734 174.5351,14.27734 4.0723,0 8.1323,-0.0195 12.1797,-0.0586 60.7111,-0.58595 118.287,-5.54425 162.3535,-14.21875 23.5022,-4.6264 42.1512,-10.01169 56.1817,-16.67969 7.0153,-3.3339 12.949,-6.93818 17.8906,-11.80469 4.9415,-4.86639 9.2209,-11.88868 9.2207,-20.14648 a 15.135602,15.135602 0 0 0 0,-0.125 c -0.01,-0.7825 -0.069,-1.5504 -0.1504,-2.3125 3.1705,-3.47579 5.2321,-7.35185 6.4297,-11.41992 z m -529.5176,6.625 c 0.029,0.0489 0.059,0.0977 0.088,0.14648 -0.029,-0.0488 -0.059,-0.0976 -0.088,-0.14648 z m 2.3145,3.34375 c 0.091,0.11302 0.1826,0.22562 0.2754,0.33789 -0.051,-0.0613 -0.1083,-0.12014 -0.1582,-0.18164 -0.042,-0.0512 -0.076,-0.10491 -0.1172,-0.15625 z"
       id="rect12551"
       inkscape:connector-curvature="0" />
  </g>
</svg>
